<svg width="230" height="214" viewBox="0 0 230 214" fill="none" xmlns="http://www.w3.org/2000/svg">
<rect width="230" height="214" rx="20" fill="#F1F1F1"/>
<rect x="22" y="21" width="188" height="173" rx="15" fill="white"/>
<rect x="30" y="62" width="170" height="1" fill="#E6E6E6"/>
<rect x="30" y="121" width="170" height="1" fill="#E6E6E6"/>
<rect x="32" y="177" width="170" height="1" fill="#E6E6E6"/>
<rect x="39" y="53" width="41" height="124" rx="5" fill="#52BDEC"/>
<rect x="96" y="86" width="41" height="91" rx="5" fill="#52BDEC"/>
<rect x="150" y="110" width="41" height="67" rx="5" fill="#52BDEC"/>
<path d="M50.7 41.02L49.4 42.22L48.84 41.55L50.81 39.92H51.66V47H50.7V41.02ZM56.2566 41.02L54.9566 42.22L54.3966 41.55L56.3666 39.92H57.2166V47H56.2566V41.02ZM61.4633 47.31L60.8633 47L65.3133 39.6L65.9133 39.91L61.4633 47.31ZM59.4833 41.51C59.4833 41.2633 59.5299 41.0333 59.6233 40.82C59.7166 40.6067 59.8433 40.42 60.0033 40.26C60.1633 40.1 60.3499 39.9733 60.5633 39.88C60.7766 39.7867 61.0066 39.74 61.2533 39.74C61.4999 39.74 61.7299 39.7867 61.9433 39.88C62.1566 39.9733 62.3433 40.1 62.5033 40.26C62.6633 40.42 62.7899 40.6067 62.8833 40.82C62.9766 41.0333 63.0233 41.2633 63.0233 41.51C63.0233 41.7567 62.9766 41.9867 62.8833 42.2C62.7899 42.4133 62.6633 42.6 62.5033 42.76C62.3433 42.92 62.1566 43.0467 61.9433 43.14C61.7299 43.2333 61.4999 43.28 61.2533 43.28C61.0066 43.28 60.7766 43.2333 60.5633 43.14C60.3499 43.0467 60.1633 42.92 60.0033 42.76C59.8433 42.6 59.7166 42.4133 59.6233 42.2C59.5299 41.9867 59.4833 41.7567 59.4833 41.51ZM60.2633 41.51C60.2633 41.79 60.3566 42.0267 60.5433 42.22C60.7366 42.4067 60.9733 42.5 61.2533 42.5C61.5333 42.5 61.7666 42.4067 61.9533 42.22C62.1466 42.0267 62.2433 41.79 62.2433 41.51C62.2433 41.23 62.1466 40.9967 61.9533 40.81C61.7666 40.6167 61.5333 40.52 61.2533 40.52C60.9733 40.52 60.7366 40.6167 60.5433 40.81C60.3566 40.9967 60.2633 41.23 60.2633 41.51ZM63.7233 45.41C63.7233 45.1633 63.7699 44.9333 63.8633 44.72C63.9566 44.5067 64.0833 44.32 64.2433 44.16C64.4033 44 64.5899 43.8733 64.8033 43.78C65.0166 43.6867 65.2466 43.64 65.4933 43.64C65.7399 43.64 65.9699 43.6867 66.1833 43.78C66.3966 43.8733 66.5833 44 66.7433 44.16C66.9033 44.32 67.0299 44.5067 67.1233 44.72C67.2166 44.9333 67.2633 45.1633 67.2633 45.41C67.2633 45.6567 67.2166 45.8867 67.1233 46.1C67.0299 46.3133 66.9033 46.5 66.7433 46.66C66.5833 46.82 66.3966 46.9467 66.1833 47.04C65.9699 47.1333 65.7399 47.18 65.4933 47.18C65.2466 47.18 65.0166 47.1333 64.8033 47.04C64.5899 46.9467 64.4033 46.82 64.2433 46.66C64.0833 46.5 63.9566 46.3133 63.8633 46.1C63.7699 45.8867 63.7233 45.6567 63.7233 45.41ZM64.5033 45.41C64.5033 45.69 64.5966 45.9267 64.7833 46.12C64.9766 46.3067 65.2133 46.4 65.4933 46.4C65.7733 46.4 66.0066 46.3067 66.1933 46.12C66.3866 45.9267 66.4833 45.69 66.4833 45.41C66.4833 45.13 66.3866 44.8967 66.1933 44.71C66.0066 44.5167 65.7733 44.42 65.4933 44.42C65.2133 44.42 64.9766 44.5167 64.7833 44.71C64.5966 44.8967 64.5033 45.13 64.5033 45.41Z" fill="#686868"/>
<path d="M110.78 82.12C110.46 82.12 110.157 82.0733 109.87 81.98C109.59 81.88 109.347 81.7367 109.14 81.55C108.933 81.3633 108.77 81.1367 108.65 80.87C108.53 80.6033 108.47 80.3033 108.47 79.97C108.47 79.75 108.503 79.5467 108.57 79.36C108.643 79.1733 108.74 79.0067 108.86 78.86C108.98 78.7067 109.12 78.58 109.28 78.48C109.447 78.3733 109.627 78.2933 109.82 78.24V78.21C109.687 78.1767 109.553 78.1167 109.42 78.03C109.287 77.9433 109.167 77.8333 109.06 77.7C108.96 77.5667 108.877 77.4067 108.81 77.22C108.743 77.0267 108.71 76.8067 108.71 76.56C108.71 76.2933 108.763 76.0533 108.87 75.84C108.983 75.62 109.133 75.4333 109.32 75.28C109.513 75.1267 109.733 75.01 109.98 74.93C110.233 74.8433 110.5 74.8 110.78 74.8C111.06 74.8 111.323 74.8433 111.57 74.93C111.823 75.01 112.043 75.1267 112.23 75.28C112.423 75.4333 112.573 75.62 112.68 75.84C112.793 76.0533 112.85 76.2933 112.85 76.56C112.85 76.8067 112.817 77.0267 112.75 77.22C112.683 77.4067 112.597 77.5667 112.49 77.7C112.39 77.8333 112.273 77.9433 112.14 78.03C112.007 78.1167 111.873 78.1767 111.74 78.21V78.24C111.933 78.2933 112.11 78.3733 112.27 78.48C112.437 78.58 112.58 78.7067 112.7 78.86C112.82 79.0067 112.913 79.1733 112.98 79.36C113.053 79.5467 113.09 79.75 113.09 79.97C113.09 80.3033 113.03 80.6033 112.91 80.87C112.79 81.1367 112.627 81.3633 112.42 81.55C112.213 81.7367 111.967 81.88 111.68 81.98C111.4 82.0733 111.1 82.12 110.78 82.12ZM109.67 76.7C109.67 76.84 109.693 76.9767 109.74 77.11C109.793 77.2433 109.867 77.3633 109.96 77.47C110.053 77.57 110.167 77.6533 110.3 77.72C110.44 77.7867 110.6 77.82 110.78 77.82C110.967 77.82 111.127 77.79 111.26 77.73C111.4 77.6633 111.517 77.58 111.61 77.48C111.703 77.3733 111.773 77.2533 111.82 77.12C111.867 76.9867 111.89 76.8467 111.89 76.7C111.89 76.3733 111.787 76.1067 111.58 75.9C111.38 75.6867 111.113 75.58 110.78 75.58C110.473 75.58 110.21 75.6833 109.99 75.89C109.777 76.0967 109.67 76.3667 109.67 76.7ZM110.78 81.28C111.18 81.28 111.503 81.16 111.75 80.92C112.003 80.6733 112.13 80.3567 112.13 79.97C112.13 79.7567 112.093 79.57 112.02 79.41C111.953 79.2433 111.857 79.1067 111.73 79C111.61 78.8867 111.467 78.8033 111.3 78.75C111.14 78.69 110.967 78.66 110.78 78.66C110.387 78.6667 110.063 78.7933 109.81 79.04C109.557 79.28 109.43 79.59 109.43 79.97C109.43 80.1767 109.467 80.3633 109.54 80.53C109.613 80.69 109.71 80.8267 109.83 80.94C109.957 81.0467 110.1 81.13 110.26 81.19C110.427 81.25 110.6 81.28 110.78 81.28ZM115.907 82.31L115.307 82L119.757 74.6L120.357 74.91L115.907 82.31ZM113.927 76.51C113.927 76.2633 113.973 76.0333 114.067 75.82C114.16 75.6067 114.287 75.42 114.447 75.26C114.607 75.1 114.793 74.9733 115.007 74.88C115.22 74.7867 115.45 74.74 115.697 74.74C115.943 74.74 116.173 74.7867 116.387 74.88C116.6 74.9733 116.787 75.1 116.947 75.26C117.107 75.42 117.233 75.6067 117.327 75.82C117.42 76.0333 117.467 76.2633 117.467 76.51C117.467 76.7567 117.42 76.9867 117.327 77.2C117.233 77.4133 117.107 77.6 116.947 77.76C116.787 77.92 116.6 78.0467 116.387 78.14C116.173 78.2333 115.943 78.28 115.697 78.28C115.45 78.28 115.22 78.2333 115.007 78.14C114.793 78.0467 114.607 77.92 114.447 77.76C114.287 77.6 114.16 77.4133 114.067 77.2C113.973 76.9867 113.927 76.7567 113.927 76.51ZM114.707 76.51C114.707 76.79 114.8 77.0267 114.987 77.22C115.18 77.4067 115.417 77.5 115.697 77.5C115.977 77.5 116.21 77.4067 116.397 77.22C116.59 77.0267 116.687 76.79 116.687 76.51C116.687 76.23 116.59 75.9967 116.397 75.81C116.21 75.6167 115.977 75.52 115.697 75.52C115.417 75.52 115.18 75.6167 114.987 75.81C114.8 75.9967 114.707 76.23 114.707 76.51ZM118.167 80.41C118.167 80.1633 118.213 79.9333 118.307 79.72C118.4 79.5067 118.527 79.32 118.687 79.16C118.847 79 119.033 78.8733 119.247 78.78C119.46 78.6867 119.69 78.64 119.937 78.64C120.183 78.64 120.413 78.6867 120.627 78.78C120.84 78.8733 121.027 79 121.187 79.16C121.347 79.32 121.473 79.5067 121.567 79.72C121.66 79.9333 121.707 80.1633 121.707 80.41C121.707 80.6567 121.66 80.8867 121.567 81.1C121.473 81.3133 121.347 81.5 121.187 81.66C121.027 81.82 120.84 81.9467 120.627 82.04C120.413 82.1333 120.183 82.18 119.937 82.18C119.69 82.18 119.46 82.1333 119.247 82.04C119.033 81.9467 118.847 81.82 118.687 81.66C118.527 81.5 118.4 81.3133 118.307 81.1C118.213 80.8867 118.167 80.6567 118.167 80.41ZM118.947 80.41C118.947 80.69 119.04 80.9267 119.227 81.12C119.42 81.3067 119.657 81.4 119.937 81.4C120.217 81.4 120.45 81.3067 120.637 81.12C120.83 80.9267 120.927 80.69 120.927 80.41C120.927 80.13 120.83 79.8967 120.637 79.71C120.45 79.5167 120.217 79.42 119.937 79.42C119.657 79.42 119.42 79.5167 119.227 79.71C119.04 79.8967 118.947 80.13 118.947 80.41Z" fill="#686868"/>
<path d="M165.2 99.66H165.24C165.46 99.5533 165.72 99.5 166.02 99.5C166.273 99.5 166.53 99.5433 166.79 99.63C167.05 99.7167 167.283 99.8533 167.49 100.04C167.703 100.22 167.877 100.453 168.01 100.74C168.143 101.02 168.21 101.353 168.21 101.74C168.21 102.133 168.143 102.48 168.01 102.78C167.883 103.073 167.71 103.32 167.49 103.52C167.27 103.72 167.013 103.87 166.72 103.97C166.427 104.07 166.113 104.12 165.78 104.12C165.447 104.12 165.133 104.067 164.84 103.96C164.547 103.853 164.29 103.7 164.07 103.5C163.85 103.3 163.673 103.06 163.54 102.78C163.413 102.5 163.35 102.187 163.35 101.84C163.35 101.62 163.367 101.42 163.4 101.24C163.433 101.06 163.48 100.89 163.54 100.73C163.607 100.563 163.683 100.403 163.77 100.25C163.857 100.09 163.953 99.9233 164.06 99.75L165.85 96.92H166.98L165.2 99.66ZM164.31 101.81C164.31 102.023 164.343 102.22 164.41 102.4C164.483 102.58 164.583 102.737 164.71 102.87C164.843 102.997 165 103.097 165.18 103.17C165.36 103.243 165.56 103.28 165.78 103.28C166 103.28 166.2 103.243 166.38 103.17C166.56 103.097 166.713 102.997 166.84 102.87C166.973 102.737 167.073 102.58 167.14 102.4C167.213 102.22 167.25 102.023 167.25 101.81C167.25 101.597 167.213 101.4 167.14 101.22C167.073 101.04 166.973 100.887 166.84 100.76C166.713 100.627 166.56 100.523 166.38 100.45C166.2 100.377 166 100.34 165.78 100.34C165.56 100.34 165.36 100.377 165.18 100.45C165 100.523 164.843 100.627 164.71 100.76C164.583 100.887 164.483 101.04 164.41 101.22C164.343 101.4 164.31 101.597 164.31 101.81ZM170.907 104.31L170.307 104L174.757 96.6L175.357 96.91L170.907 104.31ZM168.927 98.51C168.927 98.2633 168.973 98.0333 169.067 97.82C169.16 97.6067 169.287 97.42 169.447 97.26C169.607 97.1 169.793 96.9733 170.007 96.88C170.22 96.7867 170.45 96.74 170.697 96.74C170.943 96.74 171.173 96.7867 171.387 96.88C171.6 96.9733 171.787 97.1 171.947 97.26C172.107 97.42 172.233 97.6067 172.327 97.82C172.42 98.0333 172.467 98.2633 172.467 98.51C172.467 98.7567 172.42 98.9867 172.327 99.2C172.233 99.4133 172.107 99.6 171.947 99.76C171.787 99.92 171.6 100.047 171.387 100.14C171.173 100.233 170.943 100.28 170.697 100.28C170.45 100.28 170.22 100.233 170.007 100.14C169.793 100.047 169.607 99.92 169.447 99.76C169.287 99.6 169.16 99.4133 169.067 99.2C168.973 98.9867 168.927 98.7567 168.927 98.51ZM169.707 98.51C169.707 98.79 169.8 99.0267 169.987 99.22C170.18 99.4067 170.417 99.5 170.697 99.5C170.977 99.5 171.21 99.4067 171.397 99.22C171.59 99.0267 171.687 98.79 171.687 98.51C171.687 98.23 171.59 97.9967 171.397 97.81C171.21 97.6167 170.977 97.52 170.697 97.52C170.417 97.52 170.18 97.6167 169.987 97.81C169.8 97.9967 169.707 98.23 169.707 98.51ZM173.167 102.41C173.167 102.163 173.213 101.933 173.307 101.72C173.4 101.507 173.527 101.32 173.687 101.16C173.847 101 174.033 100.873 174.247 100.78C174.46 100.687 174.69 100.64 174.937 100.64C175.183 100.64 175.413 100.687 175.627 100.78C175.84 100.873 176.027 101 176.187 101.16C176.347 101.32 176.473 101.507 176.567 101.72C176.66 101.933 176.707 102.163 176.707 102.41C176.707 102.657 176.66 102.887 176.567 103.1C176.473 103.313 176.347 103.5 176.187 103.66C176.027 103.82 175.84 103.947 175.627 104.04C175.413 104.133 175.183 104.18 174.937 104.18C174.69 104.18 174.46 104.133 174.247 104.04C174.033 103.947 173.847 103.82 173.687 103.66C173.527 103.5 173.4 103.313 173.307 103.1C173.213 102.887 173.167 102.657 173.167 102.41ZM173.947 102.41C173.947 102.69 174.04 102.927 174.227 103.12C174.42 103.307 174.657 103.4 174.937 103.4C175.217 103.4 175.45 103.307 175.637 103.12C175.83 102.927 175.927 102.69 175.927 102.41C175.927 102.13 175.83 101.897 175.637 101.71C175.45 101.517 175.217 101.42 174.937 101.42C174.657 101.42 174.42 101.517 174.227 101.71C174.04 101.897 173.947 102.13 173.947 102.41Z" fill="#686868"/>
</svg>
