<svg width="42" height="39" viewBox="0 0 42 39" fill="none" xmlns="http://www.w3.org/2000/svg">
<path d="M20.982 0.353029C9.87285 0.348634 0.875 9.14649 0.875 20.0054C0.875 28.5923 6.50371 35.8916 14.3426 38.5723C15.3982 38.8315 15.2365 38.0977 15.2365 37.5967V34.1909C9.14062 34.8896 8.89355 30.9434 8.48477 30.2842C7.6582 28.9043 5.7041 28.5527 6.28809 27.8936C7.67617 27.1948 9.09121 28.0693 10.7309 30.438C11.9168 32.1562 14.2303 31.8662 15.4027 31.5806C15.6588 30.5479 16.2068 29.625 16.9615 28.9087C10.6455 27.8013 8.01309 24.0308 8.01309 19.5483C8.01309 17.373 8.74531 15.3735 10.1828 13.7607C9.26641 11.1021 10.2682 8.82568 10.4029 8.48731C13.0129 8.25879 15.7262 10.3154 15.9373 10.478C17.4197 10.0869 19.1133 9.88037 21.009 9.88037C22.9137 9.88037 24.6117 10.0957 26.1076 10.4912C26.6152 10.1133 29.1309 8.34668 31.5566 8.56201C31.6869 8.90039 32.6662 11.124 31.8037 13.7476C33.2592 15.3647 34.0004 17.3818 34.0004 19.5615C34.0004 24.0527 31.35 27.8276 25.016 28.9175C25.5585 29.4394 25.9893 30.0619 26.2832 30.7485C26.577 31.4351 26.7281 32.1721 26.7275 32.9165V37.8603C26.7635 38.2559 26.7275 38.647 27.4014 38.647C35.357 36.0234 41.0846 28.6714 41.0846 20.0098C41.0846 9.14648 32.0822 0.353029 20.982 0.353029Z" fill="black"/>
</svg>
