<svg width="32" height="31" viewBox="0 0 32 31" fill="none" xmlns="http://www.w3.org/2000/svg">
<path d="M15.9859 0.607911C7.2918 0.604493 0.25 7.44727 0.25 15.8931C0.25 22.5718 4.65508 28.249 10.7898 30.334C11.616 30.5356 11.4895 29.9648 11.4895 29.5752V26.9263C6.71875 27.4697 6.52539 24.4004 6.20547 23.8877C5.55859 22.8145 4.0293 22.541 4.48633 22.0283C5.57266 21.4849 6.68008 22.165 7.96328 24.0073C8.89141 25.3438 10.702 25.1182 11.6195 24.896C11.8199 24.0928 12.2488 23.375 12.8395 22.8179C7.89648 21.9565 5.83633 19.0239 5.83633 15.5376C5.83633 13.8457 6.40937 12.2905 7.53437 11.0361C6.81719 8.96826 7.60117 7.19775 7.70664 6.93457C9.74922 6.75684 11.8727 8.35645 12.0379 8.48291C13.198 8.17871 14.5234 8.01807 16.007 8.01807C17.4977 8.01807 18.8266 8.18555 19.9973 8.49317C20.3945 8.19922 22.3633 6.8252 24.2617 6.99268C24.3637 7.25586 25.1301 8.98535 24.4551 11.0259C25.5941 12.2837 26.1742 13.8525 26.1742 15.5479C26.1742 19.041 24.1 21.9771 19.143 22.8247C19.5676 23.2307 19.9047 23.7148 20.1347 24.2488C20.3646 24.7829 20.4829 25.3561 20.4824 25.9351V29.7803C20.5105 30.0879 20.4824 30.3921 21.0098 30.3921C27.2359 28.3516 31.7184 22.6333 31.7184 15.8965C31.7184 7.44727 24.673 0.607911 15.9859 0.607911Z" fill="white"/>
</svg>
