<svg width="230" height="214" viewBox="0 0 230 214" fill="none" xmlns="http://www.w3.org/2000/svg">
<rect width="230" height="214" rx="20" fill="#F1F1F1"/>
<mask id="mask0" mask-type="alpha" maskUnits="userSpaceOnUse" x="14" y="12" width="206" height="193">
<rect x="14" y="12" width="206" height="193" fill="#C4C4C4"/>
</mask>
<g mask="url(#mask0)">
<rect x="22" y="21.036" width="187" height="173" rx="15" fill="white"/>
<path d="M129.184 89.0379C83.7342 88.5181 98.1828 194.036 98.1828 194.036L161.121 194.036C161.121 194.036 174.633 89.5577 129.184 89.0379Z" fill="url(#paint0_linear)"/>
<circle cx="129" cy="113.036" r="10" fill="#7ABCDE"/>
<rect x="123" y="92.036" width="12" height="15" fill="#7ABCDE"/>
<ellipse cx="118" cy="101.036" rx="8" ry="6" fill="#D3EAF5"/>
<ellipse cx="140" cy="100.536" rx="8" ry="6.5" fill="#D2E9F5"/>
<circle cx="128.5" cy="77.536" r="19.5" fill="#7ABCDE"/>
<path d="M122.92 69.636C123.52 69.636 124.08 69.7227 124.6 69.896C125.133 70.056 125.593 70.296 125.98 70.616C126.38 70.9227 126.693 71.3093 126.92 71.776C127.147 72.2293 127.26 72.756 127.26 73.356C127.26 74.116 127.08 74.7827 126.72 75.356C126.373 75.9293 125.84 76.3227 125.12 76.536V76.576C125.453 76.6427 125.773 76.7827 126.08 76.996C126.4 77.196 126.68 77.4493 126.92 77.756C127.16 78.0493 127.347 78.3893 127.48 78.776C127.627 79.1627 127.7 79.576 127.7 80.016C127.7 80.7227 127.573 81.3427 127.32 81.876C127.067 82.396 126.727 82.836 126.3 83.196C125.873 83.556 125.367 83.8293 124.78 84.016C124.193 84.1893 123.573 84.276 122.92 84.276C122.253 84.276 121.627 84.1893 121.04 84.016C120.467 83.8293 119.967 83.556 119.54 83.196C119.113 82.836 118.773 82.396 118.52 81.876C118.267 81.3427 118.14 80.7227 118.14 80.016C118.14 79.576 118.207 79.1627 118.34 78.776C118.487 78.3893 118.68 78.0493 118.92 77.756C119.16 77.4493 119.433 77.196 119.74 76.996C120.06 76.7827 120.387 76.6427 120.72 76.576V76.536C120 76.3227 119.46 75.9293 119.1 75.356C118.753 74.7827 118.58 74.116 118.58 73.356C118.58 72.756 118.693 72.2293 118.92 71.776C119.147 71.3093 119.453 70.9227 119.84 70.616C120.24 70.296 120.7 70.056 121.22 69.896C121.753 69.7227 122.32 69.636 122.92 69.636ZM122.92 71.676C122.307 71.676 121.827 71.8627 121.48 72.236C121.147 72.6093 120.98 73.0627 120.98 73.596C120.98 74.156 121.153 74.6293 121.5 75.016C121.847 75.3893 122.32 75.576 122.92 75.576C123.187 75.576 123.433 75.5293 123.66 75.436C123.9 75.3293 124.107 75.1893 124.28 75.016C124.467 74.8293 124.607 74.616 124.7 74.376C124.807 74.136 124.86 73.876 124.86 73.596C124.86 73.0627 124.673 72.6093 124.3 72.236C123.94 71.8627 123.48 71.676 122.92 71.676ZM122.92 77.496C122.6 77.496 122.293 77.5493 122 77.656C121.707 77.7627 121.453 77.916 121.24 78.116C121.027 78.316 120.853 78.556 120.72 78.836C120.6 79.1027 120.54 79.396 120.54 79.716C120.54 80.396 120.76 80.9493 121.2 81.376C121.653 81.7893 122.227 81.996 122.92 81.996C123.613 81.996 124.18 81.7893 124.62 81.376C125.073 80.9493 125.3 80.396 125.3 79.716C125.3 79.396 125.233 79.1027 125.1 78.836C124.98 78.556 124.813 78.316 124.6 78.116C124.387 77.916 124.133 77.7627 123.84 77.656C123.547 77.5493 123.24 77.496 122.92 77.496ZM130.016 81.496L135.516 76.176C135.676 76.016 135.843 75.8493 136.016 75.676C136.189 75.4893 136.343 75.296 136.476 75.096C136.623 74.896 136.743 74.6893 136.836 74.476C136.929 74.2493 136.976 74.016 136.976 73.776C136.976 73.4827 136.916 73.2227 136.796 72.996C136.689 72.7693 136.543 72.576 136.356 72.416C136.169 72.256 135.949 72.136 135.696 72.056C135.456 71.9627 135.196 71.916 134.916 71.916C134.316 71.916 133.823 72.0893 133.436 72.436C133.049 72.7827 132.816 73.2493 132.736 73.836L130.216 73.636C130.269 72.9827 130.423 72.4093 130.676 71.916C130.943 71.4093 131.283 70.9893 131.696 70.656C132.109 70.3227 132.589 70.0693 133.136 69.896C133.683 69.7227 134.276 69.636 134.916 69.636C135.556 69.636 136.149 69.7227 136.696 69.896C137.256 70.056 137.743 70.3027 138.156 70.636C138.569 70.956 138.896 71.3693 139.136 71.876C139.376 72.3827 139.496 72.976 139.496 73.656C139.496 74.5493 139.289 75.3227 138.876 75.976C138.476 76.616 137.956 77.2293 137.316 77.816L132.936 81.876H139.496V84.036H130.016V81.496Z" fill="white"/>
<path d="M29.5 192C29.5 192 84 120.096 118 115.692C138.809 112.997 163.062 117.16 178 146.517C192.938 175.875 209 174.407 209 174.407" stroke="#7ABCDE" stroke-width="3"/>
</g>
<defs>
<linearGradient id="paint0_linear" x1="129.5" y1="89.036" x2="129.167" y2="203.255" gradientUnits="userSpaceOnUse">
<stop stop-color="#DAEDF8"/>
<stop offset="1" stop-color="#7ABCDE" stop-opacity="0"/>
</linearGradient>
</defs>
</svg>
