<svg width="230" height="214" viewBox="0 0 230 214" fill="none" xmlns="http://www.w3.org/2000/svg">
<rect width="230" height="214" rx="20" fill="#F1F1F1"/>
<rect x="22" y="21" width="188" height="173" rx="15" fill="white"/>
<rect x="55" y="41" width="124" height="26.6164" fill="#AC0B00"/>
<rect x="55" y="67.6165" width="124" height="26.6164" fill="#C10C00"/>
<rect x="55" y="94.2323" width="124" height="27.5342" fill="#D31307"/>
<rect x="55" y="121.768" width="124" height="26.6164" fill="#E12D25"/>
<rect x="55" y="148.384" width="124" height="26.6164" fill="#EC4D49"/>
<path d="M75.344 55.224C75.552 55.536 75.816 55.768 76.136 55.92C76.464 56.064 76.8 56.136 77.144 56.136C77.336 56.136 77.532 56.108 77.732 56.052C77.932 55.988 78.112 55.896 78.272 55.776C78.44 55.656 78.576 55.508 78.68 55.332C78.784 55.156 78.836 54.952 78.836 54.72C78.836 54.392 78.732 54.144 78.524 53.976C78.316 53.8 78.056 53.656 77.744 53.544C77.44 53.424 77.104 53.312 76.736 53.208C76.376 53.096 76.04 52.944 75.728 52.752C75.424 52.56 75.168 52.304 74.96 51.984C74.752 51.656 74.648 51.216 74.648 50.664C74.648 50.416 74.7 50.152 74.804 49.872C74.916 49.592 75.088 49.336 75.32 49.104C75.552 48.872 75.848 48.68 76.208 48.528C76.576 48.368 77.016 48.288 77.528 48.288C77.992 48.288 78.436 48.352 78.86 48.48C79.284 48.608 79.656 48.868 79.976 49.26L79.04 50.112C78.896 49.888 78.692 49.708 78.428 49.572C78.164 49.436 77.864 49.368 77.528 49.368C77.208 49.368 76.94 49.412 76.724 49.5C76.516 49.58 76.348 49.688 76.22 49.824C76.092 49.952 76 50.092 75.944 50.244C75.896 50.396 75.872 50.536 75.872 50.664C75.872 51.024 75.976 51.3 76.184 51.492C76.392 51.684 76.648 51.84 76.952 51.96C77.264 52.08 77.6 52.188 77.96 52.284C78.328 52.38 78.664 52.516 78.968 52.692C79.28 52.86 79.54 53.092 79.748 53.388C79.956 53.676 80.06 54.076 80.06 54.588C80.06 54.996 79.98 55.364 79.82 55.692C79.668 56.02 79.46 56.296 79.196 56.52C78.932 56.744 78.62 56.916 78.26 57.036C77.9 57.156 77.516 57.216 77.108 57.216C76.564 57.216 76.048 57.12 75.56 56.928C75.072 56.736 74.684 56.44 74.396 56.04L75.344 55.224ZM82.3 54.552C82.3 54.8 82.352 55.028 82.456 55.236C82.568 55.436 82.712 55.608 82.888 55.752C83.064 55.896 83.268 56.008 83.5 56.088C83.732 56.168 83.972 56.208 84.22 56.208C84.556 56.208 84.848 56.132 85.096 55.98C85.344 55.82 85.572 55.612 85.78 55.356L86.596 55.98C85.996 56.756 85.156 57.144 84.076 57.144C83.628 57.144 83.22 57.068 82.852 56.916C82.492 56.764 82.184 56.556 81.928 56.292C81.68 56.02 81.488 55.704 81.352 55.344C81.216 54.976 81.148 54.58 81.148 54.156C81.148 53.732 81.22 53.34 81.364 52.98C81.516 52.612 81.72 52.296 81.976 52.032C82.24 51.76 82.552 51.548 82.912 51.396C83.272 51.244 83.664 51.168 84.088 51.168C84.592 51.168 85.016 51.256 85.36 51.432C85.712 51.608 86 51.84 86.224 52.128C86.448 52.408 86.608 52.728 86.704 53.088C86.808 53.44 86.86 53.8 86.86 54.168V54.552H82.3ZM85.708 53.688C85.7 53.448 85.66 53.228 85.588 53.028C85.524 52.828 85.424 52.656 85.288 52.512C85.152 52.36 84.98 52.244 84.772 52.164C84.572 52.076 84.336 52.032 84.064 52.032C83.8 52.032 83.556 52.084 83.332 52.188C83.116 52.284 82.932 52.412 82.78 52.572C82.628 52.732 82.508 52.912 82.42 53.112C82.34 53.304 82.3 53.496 82.3 53.688H85.708ZM88.1519 51.312H89.2319V52.188H89.2559C89.3279 52.036 89.4239 51.9 89.5439 51.78C89.6639 51.652 89.7959 51.544 89.9399 51.456C90.0919 51.368 90.2559 51.3 90.4319 51.252C90.6079 51.196 90.7839 51.168 90.9599 51.168C91.1359 51.168 91.2959 51.192 91.4399 51.24L91.3919 52.404C91.3039 52.38 91.2159 52.36 91.1279 52.344C91.0399 52.328 90.9519 52.32 90.8639 52.32C90.3359 52.32 89.9319 52.468 89.6519 52.764C89.3719 53.06 89.2319 53.52 89.2319 54.144V57H88.1519V51.312ZM91.9093 51.312H93.1573L94.8613 55.668L96.4933 51.312H97.6453L95.4133 57H94.2253L91.9093 51.312ZM98.6773 51.312H99.7573V57H98.6773V51.312ZM98.4253 49.272C98.4253 49.056 98.5013 48.872 98.6533 48.72C98.8133 48.56 99.0013 48.48 99.2173 48.48C99.4333 48.48 99.6173 48.56 99.7693 48.72C99.9293 48.872 100.009 49.056 100.009 49.272C100.009 49.488 99.9293 49.676 99.7693 49.836C99.6173 49.988 99.4333 50.064 99.2173 50.064C99.0013 50.064 98.8133 49.988 98.6533 49.836C98.5013 49.676 98.4253 49.488 98.4253 49.272ZM105.544 52.824C105.344 52.616 105.132 52.46 104.908 52.356C104.692 52.244 104.432 52.188 104.128 52.188C103.832 52.188 103.572 52.244 103.348 52.356C103.132 52.46 102.948 52.608 102.796 52.8C102.652 52.984 102.54 53.2 102.46 53.448C102.388 53.688 102.352 53.94 102.352 54.204C102.352 54.468 102.396 54.72 102.484 54.96C102.572 55.192 102.696 55.396 102.856 55.572C103.016 55.748 103.208 55.888 103.432 55.992C103.656 56.088 103.908 56.136 104.188 56.136C104.492 56.136 104.752 56.084 104.968 55.98C105.184 55.868 105.384 55.708 105.568 55.5L106.336 56.268C106.056 56.58 105.728 56.804 105.352 56.94C104.984 57.076 104.592 57.144 104.176 57.144C103.736 57.144 103.332 57.072 102.964 56.928C102.604 56.784 102.292 56.584 102.028 56.328C101.764 56.064 101.56 55.752 101.416 55.392C101.272 55.024 101.2 54.62 101.2 54.18C101.2 53.74 101.272 53.336 101.416 52.968C101.56 52.6 101.76 52.284 102.016 52.02C102.28 51.756 102.592 51.552 102.952 51.408C103.32 51.256 103.728 51.18 104.176 51.18C104.592 51.18 104.988 51.256 105.364 51.408C105.748 51.552 106.08 51.776 106.36 52.08L105.544 52.824ZM108.081 54.552C108.081 54.8 108.133 55.028 108.237 55.236C108.349 55.436 108.493 55.608 108.669 55.752C108.845 55.896 109.049 56.008 109.281 56.088C109.513 56.168 109.753 56.208 110.001 56.208C110.337 56.208 110.629 56.132 110.877 55.98C111.125 55.82 111.353 55.612 111.561 55.356L112.377 55.98C111.777 56.756 110.937 57.144 109.857 57.144C109.409 57.144 109.001 57.068 108.633 56.916C108.273 56.764 107.965 56.556 107.709 56.292C107.461 56.02 107.269 55.704 107.133 55.344C106.997 54.976 106.929 54.58 106.929 54.156C106.929 53.732 107.001 53.34 107.145 52.98C107.297 52.612 107.501 52.296 107.757 52.032C108.021 51.76 108.333 51.548 108.693 51.396C109.053 51.244 109.445 51.168 109.869 51.168C110.373 51.168 110.797 51.256 111.141 51.432C111.493 51.608 111.781 51.84 112.005 52.128C112.229 52.408 112.389 52.728 112.485 53.088C112.589 53.44 112.641 53.8 112.641 54.168V54.552H108.081ZM111.489 53.688C111.481 53.448 111.441 53.228 111.369 53.028C111.305 52.828 111.205 52.656 111.069 52.512C110.933 52.36 110.761 52.244 110.553 52.164C110.353 52.076 110.117 52.032 109.845 52.032C109.581 52.032 109.337 52.084 109.113 52.188C108.897 52.284 108.713 52.412 108.561 52.572C108.409 52.732 108.289 52.912 108.201 53.112C108.121 53.304 108.081 53.496 108.081 53.688H111.489Z" fill="white"/>
<path d="M77.756 75.504H78.8L82.436 84H81.092L80.24 81.9H76.196L75.356 84H74.012L77.756 75.504ZM79.82 80.892L78.236 76.992H78.212L76.604 80.892H79.82ZM83.2652 78.312H84.2732V79.2H84.2972C84.3212 79.12 84.3812 79.02 84.4772 78.9C84.5812 78.78 84.7092 78.668 84.8612 78.564C85.0212 78.452 85.2052 78.36 85.4132 78.288C85.6292 78.208 85.8652 78.168 86.1212 78.168C86.5452 78.168 86.9012 78.256 87.1892 78.432C87.4772 78.608 87.7132 78.872 87.8972 79.224C88.0812 78.872 88.3412 78.608 88.6772 78.432C89.0132 78.256 89.3532 78.168 89.6972 78.168C90.1372 78.168 90.4972 78.24 90.7772 78.384C91.0572 78.528 91.2772 78.72 91.4372 78.96C91.5972 79.192 91.7052 79.46 91.7612 79.764C91.8252 80.06 91.8572 80.368 91.8572 80.688V84H90.7772V80.832C90.7772 80.616 90.7612 80.408 90.7292 80.208C90.7052 80.008 90.6492 79.832 90.5612 79.68C90.4732 79.528 90.3492 79.408 90.1892 79.32C90.0292 79.224 89.8172 79.176 89.5532 79.176C89.0332 79.176 88.6612 79.336 88.4372 79.656C88.2132 79.976 88.1012 80.388 88.1012 80.892V84H87.0212V81.024C87.0212 80.752 87.0052 80.504 86.9732 80.28C86.9492 80.056 86.8932 79.864 86.8052 79.704C86.7252 79.536 86.6052 79.408 86.4452 79.32C86.2932 79.224 86.0852 79.176 85.8212 79.176C85.6292 79.176 85.4412 79.216 85.2572 79.296C85.0812 79.368 84.9252 79.48 84.7892 79.632C84.6532 79.784 84.5452 79.98 84.4652 80.22C84.3852 80.452 84.3452 80.728 84.3452 81.048V84H83.2652V78.312ZM93.484 74.928H94.564V79.128H94.588C94.78 78.832 95.056 78.6 95.416 78.432C95.776 78.256 96.16 78.168 96.568 78.168C97.008 78.168 97.404 78.244 97.756 78.396C98.116 78.548 98.42 78.76 98.668 79.032C98.924 79.296 99.12 79.612 99.256 79.98C99.392 80.34 99.46 80.732 99.46 81.156C99.46 81.58 99.392 81.972 99.256 82.332C99.12 82.692 98.924 83.008 98.668 83.28C98.42 83.552 98.116 83.764 97.756 83.916C97.404 84.068 97.008 84.144 96.568 84.144C96.184 84.144 95.808 84.06 95.44 83.892C95.08 83.724 94.796 83.488 94.588 83.184H94.564V84H93.484V74.928ZM96.436 83.136C96.724 83.136 96.984 83.088 97.216 82.992C97.448 82.888 97.644 82.752 97.804 82.584C97.964 82.408 98.088 82.2 98.176 81.96C98.264 81.712 98.308 81.444 98.308 81.156C98.308 80.868 98.264 80.604 98.176 80.364C98.088 80.116 97.964 79.908 97.804 79.74C97.644 79.564 97.448 79.428 97.216 79.332C96.984 79.228 96.724 79.176 96.436 79.176C96.148 79.176 95.888 79.228 95.656 79.332C95.424 79.428 95.228 79.564 95.068 79.74C94.908 79.908 94.784 80.116 94.696 80.364C94.608 80.604 94.564 80.868 94.564 81.156C94.564 81.444 94.608 81.712 94.696 81.96C94.784 82.2 94.908 82.408 95.068 82.584C95.228 82.752 95.424 82.888 95.656 82.992C95.888 83.088 96.148 83.136 96.436 83.136ZM100.904 78.312H101.984V84H100.904V78.312ZM100.652 76.272C100.652 76.056 100.728 75.872 100.88 75.72C101.04 75.56 101.228 75.48 101.444 75.48C101.66 75.48 101.844 75.56 101.996 75.72C102.156 75.872 102.236 76.056 102.236 76.272C102.236 76.488 102.156 76.676 101.996 76.836C101.844 76.988 101.66 77.064 101.444 77.064C101.228 77.064 101.04 76.988 100.88 76.836C100.728 76.676 100.652 76.488 100.652 76.272ZM103.727 79.008C104.031 78.728 104.383 78.52 104.783 78.384C105.183 78.24 105.583 78.168 105.983 78.168C106.399 78.168 106.755 78.22 107.051 78.324C107.355 78.428 107.603 78.568 107.795 78.744C107.987 78.92 108.127 79.124 108.215 79.356C108.311 79.58 108.359 79.816 108.359 80.064V82.968C108.359 83.168 108.363 83.352 108.371 83.52C108.379 83.688 108.391 83.848 108.407 84H107.447C107.423 83.712 107.411 83.424 107.411 83.136H107.387C107.147 83.504 106.863 83.764 106.535 83.916C106.207 84.068 105.827 84.144 105.395 84.144C105.131 84.144 104.879 84.108 104.639 84.036C104.399 83.964 104.187 83.856 104.003 83.712C103.827 83.568 103.687 83.392 103.583 83.184C103.479 82.968 103.427 82.72 103.427 82.44C103.427 82.072 103.507 81.764 103.667 81.516C103.835 81.268 104.059 81.068 104.339 80.916C104.627 80.756 104.959 80.644 105.335 80.58C105.719 80.508 106.127 80.472 106.559 80.472H107.351V80.232C107.351 80.088 107.323 79.944 107.267 79.8C107.211 79.656 107.127 79.528 107.015 79.416C106.903 79.296 106.763 79.204 106.595 79.14C106.427 79.068 106.227 79.032 105.995 79.032C105.787 79.032 105.603 79.052 105.443 79.092C105.291 79.132 105.151 79.184 105.023 79.248C104.895 79.304 104.779 79.372 104.675 79.452C104.571 79.532 104.471 79.608 104.375 79.68L103.727 79.008ZM106.775 81.264C106.519 81.264 106.255 81.28 105.983 81.312C105.719 81.336 105.475 81.388 105.251 81.468C105.035 81.548 104.855 81.66 104.711 81.804C104.575 81.948 104.507 82.132 104.507 82.356C104.507 82.684 104.615 82.92 104.831 83.064C105.055 83.208 105.355 83.28 105.731 83.28C106.027 83.28 106.279 83.232 106.487 83.136C106.695 83.032 106.863 82.9 106.991 82.74C107.119 82.58 107.211 82.404 107.267 82.212C107.323 82.012 107.351 81.816 107.351 81.624V81.264H106.775ZM109.925 78.312H111.005V79.188H111.029C111.165 78.884 111.401 78.64 111.737 78.456C112.073 78.264 112.461 78.168 112.901 78.168C113.173 78.168 113.433 78.212 113.681 78.3C113.937 78.38 114.157 78.508 114.341 78.684C114.533 78.86 114.685 79.088 114.797 79.368C114.909 79.64 114.965 79.964 114.965 80.34V84H113.885V80.64C113.885 80.376 113.849 80.152 113.777 79.968C113.705 79.776 113.609 79.624 113.489 79.512C113.369 79.392 113.229 79.308 113.069 79.26C112.917 79.204 112.757 79.176 112.589 79.176C112.365 79.176 112.157 79.212 111.965 79.284C111.773 79.356 111.605 79.472 111.461 79.632C111.317 79.784 111.205 79.98 111.125 80.22C111.045 80.46 111.005 80.744 111.005 81.072V84H109.925V78.312ZM120.661 79.824C120.461 79.616 120.249 79.46 120.025 79.356C119.809 79.244 119.549 79.188 119.245 79.188C118.949 79.188 118.689 79.244 118.465 79.356C118.249 79.46 118.065 79.608 117.913 79.8C117.769 79.984 117.657 80.2 117.577 80.448C117.505 80.688 117.469 80.94 117.469 81.204C117.469 81.468 117.513 81.72 117.601 81.96C117.689 82.192 117.813 82.396 117.973 82.572C118.133 82.748 118.325 82.888 118.549 82.992C118.773 83.088 119.025 83.136 119.305 83.136C119.609 83.136 119.869 83.084 120.085 82.98C120.301 82.868 120.501 82.708 120.685 82.5L121.453 83.268C121.173 83.58 120.845 83.804 120.469 83.94C120.101 84.076 119.709 84.144 119.293 84.144C118.853 84.144 118.449 84.072 118.081 83.928C117.721 83.784 117.409 83.584 117.145 83.328C116.881 83.064 116.677 82.752 116.533 82.392C116.389 82.024 116.317 81.62 116.317 81.18C116.317 80.74 116.389 80.336 116.533 79.968C116.677 79.6 116.877 79.284 117.133 79.02C117.397 78.756 117.709 78.552 118.069 78.408C118.437 78.256 118.845 78.18 119.293 78.18C119.709 78.18 120.105 78.256 120.481 78.408C120.865 78.552 121.197 78.776 121.477 79.08L120.661 79.824ZM123.198 81.552C123.198 81.8 123.25 82.028 123.354 82.236C123.466 82.436 123.61 82.608 123.786 82.752C123.962 82.896 124.166 83.008 124.398 83.088C124.63 83.168 124.87 83.208 125.118 83.208C125.454 83.208 125.746 83.132 125.994 82.98C126.242 82.82 126.47 82.612 126.678 82.356L127.494 82.98C126.894 83.756 126.054 84.144 124.974 84.144C124.526 84.144 124.118 84.068 123.75 83.916C123.39 83.764 123.082 83.556 122.826 83.292C122.578 83.02 122.386 82.704 122.25 82.344C122.114 81.976 122.046 81.58 122.046 81.156C122.046 80.732 122.118 80.34 122.262 79.98C122.414 79.612 122.618 79.296 122.874 79.032C123.138 78.76 123.45 78.548 123.81 78.396C124.17 78.244 124.562 78.168 124.986 78.168C125.49 78.168 125.914 78.256 126.258 78.432C126.61 78.608 126.898 78.84 127.122 79.128C127.346 79.408 127.506 79.728 127.602 80.088C127.706 80.44 127.758 80.8 127.758 81.168V81.552H123.198ZM126.606 80.688C126.598 80.448 126.558 80.228 126.486 80.028C126.422 79.828 126.322 79.656 126.186 79.512C126.05 79.36 125.878 79.244 125.67 79.164C125.47 79.076 125.234 79.032 124.962 79.032C124.698 79.032 124.454 79.084 124.23 79.188C124.014 79.284 123.83 79.412 123.678 79.572C123.526 79.732 123.406 79.912 123.318 80.112C123.238 80.304 123.198 80.496 123.198 80.688H126.606Z" fill="white"/>
<path d="M75.008 102.504H76.724L79.424 108.936H79.472L82.148 102.504H83.864V111H82.712V104.016H82.688L79.82 111H79.052L76.184 104.016H76.16V111H75.008V102.504ZM90.731 111H89.651V110.124H89.627C89.491 110.428 89.255 110.676 88.919 110.868C88.583 111.052 88.195 111.144 87.755 111.144C87.475 111.144 87.211 111.1 86.963 111.012C86.715 110.932 86.495 110.804 86.303 110.628C86.119 110.452 85.971 110.228 85.859 109.956C85.747 109.676 85.691 109.348 85.691 108.972V105.312H86.771V108.672C86.771 108.936 86.807 109.164 86.879 109.356C86.951 109.54 87.047 109.692 87.167 109.812C87.287 109.924 87.423 110.008 87.575 110.064C87.735 110.112 87.899 110.136 88.067 110.136C88.291 110.136 88.499 110.1 88.691 110.028C88.883 109.956 89.051 109.844 89.195 109.692C89.339 109.532 89.451 109.332 89.531 109.092C89.611 108.852 89.651 108.568 89.651 108.24V105.312H90.731V111ZM95.383 106.74C95.255 106.58 95.095 106.448 94.903 106.344C94.719 106.232 94.491 106.176 94.219 106.176C93.963 106.176 93.739 106.232 93.547 106.344C93.363 106.448 93.271 106.604 93.271 106.812C93.271 106.98 93.323 107.116 93.427 107.22C93.539 107.324 93.667 107.408 93.811 107.472C93.963 107.536 94.123 107.584 94.291 107.616C94.459 107.648 94.603 107.676 94.723 107.7C94.955 107.756 95.171 107.824 95.371 107.904C95.579 107.984 95.755 108.088 95.899 108.216C96.051 108.344 96.167 108.5 96.247 108.684C96.335 108.868 96.379 109.092 96.379 109.356C96.379 109.676 96.311 109.952 96.175 110.184C96.039 110.408 95.863 110.592 95.647 110.736C95.431 110.88 95.183 110.984 94.903 111.048C94.631 111.112 94.355 111.144 94.075 111.144C93.603 111.144 93.187 111.072 92.827 110.928C92.475 110.784 92.159 110.52 91.879 110.136L92.695 109.464C92.871 109.64 93.067 109.796 93.283 109.932C93.499 110.068 93.763 110.136 94.075 110.136C94.211 110.136 94.347 110.124 94.483 110.1C94.627 110.068 94.751 110.024 94.855 109.968C94.967 109.904 95.055 109.828 95.119 109.74C95.191 109.644 95.227 109.536 95.227 109.416C95.227 109.256 95.175 109.124 95.071 109.02C94.975 108.916 94.855 108.836 94.711 108.78C94.575 108.716 94.427 108.668 94.267 108.636C94.115 108.596 93.979 108.564 93.859 108.54C93.627 108.484 93.407 108.42 93.199 108.348C92.991 108.276 92.807 108.18 92.647 108.06C92.487 107.94 92.359 107.788 92.263 107.604C92.167 107.42 92.119 107.192 92.119 106.92C92.119 106.624 92.179 106.368 92.299 106.152C92.427 105.928 92.591 105.744 92.791 105.6C92.999 105.456 93.231 105.348 93.487 105.276C93.751 105.204 94.015 105.168 94.279 105.168C94.663 105.168 95.031 105.24 95.383 105.384C95.735 105.528 96.015 105.768 96.223 106.104L95.383 106.74ZM97.775 105.312H98.855V111H97.775V105.312ZM97.523 103.272C97.523 103.056 97.599 102.872 97.751 102.72C97.911 102.56 98.099 102.48 98.315 102.48C98.531 102.48 98.715 102.56 98.867 102.72C99.027 102.872 99.107 103.056 99.107 103.272C99.107 103.488 99.027 103.676 98.867 103.836C98.715 103.988 98.531 104.064 98.315 104.064C98.099 104.064 97.911 103.988 97.751 103.836C97.599 103.676 97.523 103.488 97.523 103.272ZM104.642 106.824C104.442 106.616 104.23 106.46 104.006 106.356C103.79 106.244 103.53 106.188 103.226 106.188C102.93 106.188 102.67 106.244 102.446 106.356C102.23 106.46 102.046 106.608 101.894 106.8C101.75 106.984 101.638 107.2 101.558 107.448C101.486 107.688 101.45 107.94 101.45 108.204C101.45 108.468 101.494 108.72 101.582 108.96C101.67 109.192 101.794 109.396 101.954 109.572C102.114 109.748 102.306 109.888 102.53 109.992C102.754 110.088 103.006 110.136 103.286 110.136C103.59 110.136 103.85 110.084 104.066 109.98C104.282 109.868 104.482 109.708 104.666 109.5L105.434 110.268C105.154 110.58 104.826 110.804 104.45 110.94C104.082 111.076 103.69 111.144 103.274 111.144C102.834 111.144 102.43 111.072 102.062 110.928C101.702 110.784 101.39 110.584 101.126 110.328C100.862 110.064 100.658 109.752 100.514 109.392C100.37 109.024 100.298 108.62 100.298 108.18C100.298 107.74 100.37 107.336 100.514 106.968C100.658 106.6 100.858 106.284 101.114 106.02C101.378 105.756 101.69 105.552 102.05 105.408C102.418 105.256 102.826 105.18 103.274 105.18C103.69 105.18 104.086 105.256 104.462 105.408C104.846 105.552 105.178 105.776 105.458 106.08L104.642 106.824Z" fill="white"/>
<path d="M74.012 130.504H75.212L77.084 137.296H77.108L79.112 130.504H80.432L82.436 137.296H82.46L84.332 130.504H85.532L83.06 139H81.848L79.784 132.064H79.76L77.708 139H76.496L74.012 130.504ZM86.443 133.312H87.523V139H86.443V133.312ZM86.191 131.272C86.191 131.056 86.267 130.872 86.419 130.72C86.579 130.56 86.767 130.48 86.983 130.48C87.199 130.48 87.383 130.56 87.535 130.72C87.695 130.872 87.775 131.056 87.775 131.272C87.775 131.488 87.695 131.676 87.535 131.836C87.383 131.988 87.199 132.064 86.983 132.064C86.767 132.064 86.579 131.988 86.419 131.836C86.267 131.676 86.191 131.488 86.191 131.272ZM89.6618 134.248H88.4378V133.312H89.6618V132.04C89.6618 131.28 89.8058 130.716 90.0938 130.348C90.3898 129.972 90.8938 129.784 91.6058 129.784C91.7258 129.784 91.8498 129.788 91.9778 129.796C92.1138 129.804 92.2578 129.828 92.4098 129.868L92.2898 130.828C92.1858 130.788 92.0858 130.76 91.9898 130.744C91.8938 130.728 91.7898 130.72 91.6778 130.72C91.4778 130.72 91.3178 130.752 91.1978 130.816C91.0778 130.872 90.9818 130.956 90.9098 131.068C90.8458 131.18 90.8018 131.316 90.7778 131.476C90.7618 131.628 90.7538 131.804 90.7538 132.004V133.312H92.0378V134.248H90.7418V139H89.6618V134.248ZM93.3219 133.312H94.4019V139H93.3219V133.312ZM93.0699 131.272C93.0699 131.056 93.1459 130.872 93.2979 130.72C93.4579 130.56 93.6459 130.48 93.8619 130.48C94.0779 130.48 94.2619 130.56 94.4139 130.72C94.5739 130.872 94.6539 131.056 94.6539 131.272C94.6539 131.488 94.5739 131.676 94.4139 131.836C94.2619 131.988 94.0779 132.064 93.8619 132.064C93.6459 132.064 93.4579 131.988 93.2979 131.836C93.1459 131.676 93.0699 131.488 93.0699 131.272Z" fill="white"/>
<path d="M75.092 156.504H78.08C78.624 156.504 79.072 156.58 79.424 156.732C79.776 156.876 80.052 157.064 80.252 157.296C80.46 157.52 80.604 157.776 80.684 158.064C80.764 158.344 80.804 158.616 80.804 158.88C80.804 159.144 80.764 159.42 80.684 159.708C80.604 159.988 80.46 160.244 80.252 160.476C80.052 160.7 79.776 160.888 79.424 161.04C79.072 161.184 78.624 161.256 78.08 161.256H76.244V165H75.092V156.504ZM76.244 160.248H77.756C77.98 160.248 78.2 160.232 78.416 160.2C78.64 160.16 78.836 160.092 79.004 159.996C79.18 159.9 79.32 159.764 79.424 159.588C79.528 159.404 79.58 159.168 79.58 158.88C79.58 158.592 79.528 158.36 79.424 158.184C79.32 158 79.18 157.86 79.004 157.764C78.836 157.668 78.64 157.604 78.416 157.572C78.2 157.532 77.98 157.512 77.756 157.512H76.244V160.248ZM81.9293 159.312H83.0093V160.188H83.0333C83.1053 160.036 83.2013 159.9 83.3213 159.78C83.4413 159.652 83.5733 159.544 83.7173 159.456C83.8693 159.368 84.0333 159.3 84.2093 159.252C84.3853 159.196 84.5613 159.168 84.7373 159.168C84.9133 159.168 85.0733 159.192 85.2173 159.24L85.1693 160.404C85.0813 160.38 84.9933 160.36 84.9053 160.344C84.8173 160.328 84.7293 160.32 84.6413 160.32C84.1133 160.32 83.7093 160.468 83.4293 160.764C83.1493 161.06 83.0093 161.52 83.0093 162.144V165H81.9293V159.312ZM86.4547 159.312H87.5347V165H86.4547V159.312ZM86.2027 157.272C86.2027 157.056 86.2787 156.872 86.4307 156.72C86.5907 156.56 86.7787 156.48 86.9947 156.48C87.2107 156.48 87.3947 156.56 87.5467 156.72C87.7067 156.872 87.7867 157.056 87.7867 157.272C87.7867 157.488 87.7067 157.676 87.5467 157.836C87.3947 157.988 87.2107 158.064 86.9947 158.064C86.7787 158.064 86.5907 157.988 86.4307 157.836C86.2787 157.676 86.2027 157.488 86.2027 157.272ZM93.3215 160.824C93.1215 160.616 92.9095 160.46 92.6855 160.356C92.4695 160.244 92.2095 160.188 91.9055 160.188C91.6095 160.188 91.3495 160.244 91.1255 160.356C90.9095 160.46 90.7255 160.608 90.5735 160.8C90.4295 160.984 90.3175 161.2 90.2375 161.448C90.1655 161.688 90.1295 161.94 90.1295 162.204C90.1295 162.468 90.1735 162.72 90.2615 162.96C90.3495 163.192 90.4735 163.396 90.6335 163.572C90.7935 163.748 90.9855 163.888 91.2095 163.992C91.4335 164.088 91.6855 164.136 91.9655 164.136C92.2695 164.136 92.5295 164.084 92.7455 163.98C92.9615 163.868 93.1615 163.708 93.3455 163.5L94.1135 164.268C93.8335 164.58 93.5055 164.804 93.1295 164.94C92.7615 165.076 92.3695 165.144 91.9535 165.144C91.5135 165.144 91.1095 165.072 90.7415 164.928C90.3815 164.784 90.0695 164.584 89.8055 164.328C89.5415 164.064 89.3375 163.752 89.1935 163.392C89.0495 163.024 88.9775 162.62 88.9775 162.18C88.9775 161.74 89.0495 161.336 89.1935 160.968C89.3375 160.6 89.5375 160.284 89.7935 160.02C90.0575 159.756 90.3695 159.552 90.7295 159.408C91.0975 159.256 91.5055 159.18 91.9535 159.18C92.3695 159.18 92.7655 159.256 93.1415 159.408C93.5255 159.552 93.8575 159.776 94.1375 160.08L93.3215 160.824ZM95.8586 162.552C95.8586 162.8 95.9106 163.028 96.0146 163.236C96.1266 163.436 96.2706 163.608 96.4466 163.752C96.6226 163.896 96.8266 164.008 97.0586 164.088C97.2906 164.168 97.5306 164.208 97.7786 164.208C98.1146 164.208 98.4066 164.132 98.6546 163.98C98.9026 163.82 99.1306 163.612 99.3386 163.356L100.155 163.98C99.5546 164.756 98.7146 165.144 97.6346 165.144C97.1866 165.144 96.7786 165.068 96.4106 164.916C96.0506 164.764 95.7426 164.556 95.4866 164.292C95.2386 164.02 95.0466 163.704 94.9106 163.344C94.7746 162.976 94.7066 162.58 94.7066 162.156C94.7066 161.732 94.7786 161.34 94.9226 160.98C95.0746 160.612 95.2786 160.296 95.5346 160.032C95.7986 159.76 96.1106 159.548 96.4706 159.396C96.8306 159.244 97.2226 159.168 97.6466 159.168C98.1506 159.168 98.5746 159.256 98.9186 159.432C99.2706 159.608 99.5586 159.84 99.7826 160.128C100.007 160.408 100.167 160.728 100.263 161.088C100.367 161.44 100.419 161.8 100.419 162.168V162.552H95.8586ZM99.2666 161.688C99.2586 161.448 99.2186 161.228 99.1466 161.028C99.0826 160.828 98.9826 160.656 98.8466 160.512C98.7106 160.36 98.5386 160.244 98.3306 160.164C98.1306 160.076 97.8946 160.032 97.6226 160.032C97.3586 160.032 97.1146 160.084 96.8906 160.188C96.6746 160.284 96.4906 160.412 96.3386 160.572C96.1866 160.732 96.0666 160.912 95.9786 161.112C95.8986 161.304 95.8586 161.496 95.8586 161.688H99.2666Z" fill="white"/>
</svg>
