<svg width="230" height="214" viewBox="0 0 230 214" fill="none" xmlns="http://www.w3.org/2000/svg">
<rect width="230" height="214" rx="20" fill="#F1F1F1"/>
<rect x="22" y="21" width="188" height="173" rx="15" fill="white"/>
<rect x="54" y="40" width="124" height="26.6164" fill="#003CB8"/>
<rect x="54" y="66.6165" width="124" height="26.6164" fill="#004ACC"/>
<rect x="54" y="93.2323" width="124" height="27.5342" fill="#005EDC"/>
<rect x="54" y="120.768" width="124" height="26.6164" fill="#00A5E8"/>
<rect x="54" y="147.384" width="124" height="26.6164" fill="#00BAF1"/>
<path d="M74.344 54.224C74.552 54.536 74.816 54.768 75.136 54.92C75.464 55.064 75.8 55.136 76.144 55.136C76.336 55.136 76.532 55.108 76.732 55.052C76.932 54.988 77.112 54.896 77.272 54.776C77.44 54.656 77.576 54.508 77.68 54.332C77.784 54.156 77.836 53.952 77.836 53.72C77.836 53.392 77.732 53.144 77.524 52.976C77.316 52.8 77.056 52.656 76.744 52.544C76.44 52.424 76.104 52.312 75.736 52.208C75.376 52.096 75.04 51.944 74.728 51.752C74.424 51.56 74.168 51.304 73.96 50.984C73.752 50.656 73.648 50.216 73.648 49.664C73.648 49.416 73.7 49.152 73.804 48.872C73.916 48.592 74.088 48.336 74.32 48.104C74.552 47.872 74.848 47.68 75.208 47.528C75.576 47.368 76.016 47.288 76.528 47.288C76.992 47.288 77.436 47.352 77.86 47.48C78.284 47.608 78.656 47.868 78.976 48.26L78.04 49.112C77.896 48.888 77.692 48.708 77.428 48.572C77.164 48.436 76.864 48.368 76.528 48.368C76.208 48.368 75.94 48.412 75.724 48.5C75.516 48.58 75.348 48.688 75.22 48.824C75.092 48.952 75 49.092 74.944 49.244C74.896 49.396 74.872 49.536 74.872 49.664C74.872 50.024 74.976 50.3 75.184 50.492C75.392 50.684 75.648 50.84 75.952 50.96C76.264 51.08 76.6 51.188 76.96 51.284C77.328 51.38 77.664 51.516 77.968 51.692C78.28 51.86 78.54 52.092 78.748 52.388C78.956 52.676 79.06 53.076 79.06 53.588C79.06 53.996 78.98 54.364 78.82 54.692C78.668 55.02 78.46 55.296 78.196 55.52C77.932 55.744 77.62 55.916 77.26 56.036C76.9 56.156 76.516 56.216 76.108 56.216C75.564 56.216 75.048 56.12 74.56 55.928C74.072 55.736 73.684 55.44 73.396 55.04L74.344 54.224ZM81.3 53.552C81.3 53.8 81.352 54.028 81.456 54.236C81.568 54.436 81.712 54.608 81.888 54.752C82.064 54.896 82.268 55.008 82.5 55.088C82.732 55.168 82.972 55.208 83.22 55.208C83.556 55.208 83.848 55.132 84.096 54.98C84.344 54.82 84.572 54.612 84.78 54.356L85.596 54.98C84.996 55.756 84.156 56.144 83.076 56.144C82.628 56.144 82.22 56.068 81.852 55.916C81.492 55.764 81.184 55.556 80.928 55.292C80.68 55.02 80.488 54.704 80.352 54.344C80.216 53.976 80.148 53.58 80.148 53.156C80.148 52.732 80.22 52.34 80.364 51.98C80.516 51.612 80.72 51.296 80.976 51.032C81.24 50.76 81.552 50.548 81.912 50.396C82.272 50.244 82.664 50.168 83.088 50.168C83.592 50.168 84.016 50.256 84.36 50.432C84.712 50.608 85 50.84 85.224 51.128C85.448 51.408 85.608 51.728 85.704 52.088C85.808 52.44 85.86 52.8 85.86 53.168V53.552H81.3ZM84.708 52.688C84.7 52.448 84.66 52.228 84.588 52.028C84.524 51.828 84.424 51.656 84.288 51.512C84.152 51.36 83.98 51.244 83.772 51.164C83.572 51.076 83.336 51.032 83.064 51.032C82.8 51.032 82.556 51.084 82.332 51.188C82.116 51.284 81.932 51.412 81.78 51.572C81.628 51.732 81.508 51.912 81.42 52.112C81.34 52.304 81.3 52.496 81.3 52.688H84.708ZM87.1519 50.312H88.2319V51.188H88.2559C88.3279 51.036 88.4239 50.9 88.5439 50.78C88.6639 50.652 88.7959 50.544 88.9399 50.456C89.0919 50.368 89.2559 50.3 89.4319 50.252C89.6079 50.196 89.7839 50.168 89.9599 50.168C90.1359 50.168 90.2959 50.192 90.4399 50.24L90.3919 51.404C90.3039 51.38 90.2159 51.36 90.1279 51.344C90.0399 51.328 89.9519 51.32 89.8639 51.32C89.3359 51.32 88.9319 51.468 88.6519 51.764C88.3719 52.06 88.2319 52.52 88.2319 53.144V56H87.1519V50.312ZM90.9093 50.312H92.1573L93.8613 54.668L95.4933 50.312H96.6453L94.4133 56H93.2253L90.9093 50.312ZM97.6773 50.312H98.7573V56H97.6773V50.312ZM97.4253 48.272C97.4253 48.056 97.5013 47.872 97.6533 47.72C97.8133 47.56 98.0013 47.48 98.2173 47.48C98.4333 47.48 98.6173 47.56 98.7693 47.72C98.9293 47.872 99.0093 48.056 99.0093 48.272C99.0093 48.488 98.9293 48.676 98.7693 48.836C98.6173 48.988 98.4333 49.064 98.2173 49.064C98.0013 49.064 97.8133 48.988 97.6533 48.836C97.5013 48.676 97.4253 48.488 97.4253 48.272ZM104.544 51.824C104.344 51.616 104.132 51.46 103.908 51.356C103.692 51.244 103.432 51.188 103.128 51.188C102.832 51.188 102.572 51.244 102.348 51.356C102.132 51.46 101.948 51.608 101.796 51.8C101.652 51.984 101.54 52.2 101.46 52.448C101.388 52.688 101.352 52.94 101.352 53.204C101.352 53.468 101.396 53.72 101.484 53.96C101.572 54.192 101.696 54.396 101.856 54.572C102.016 54.748 102.208 54.888 102.432 54.992C102.656 55.088 102.908 55.136 103.188 55.136C103.492 55.136 103.752 55.084 103.968 54.98C104.184 54.868 104.384 54.708 104.568 54.5L105.336 55.268C105.056 55.58 104.728 55.804 104.352 55.94C103.984 56.076 103.592 56.144 103.176 56.144C102.736 56.144 102.332 56.072 101.964 55.928C101.604 55.784 101.292 55.584 101.028 55.328C100.764 55.064 100.56 54.752 100.416 54.392C100.272 54.024 100.2 53.62 100.2 53.18C100.2 52.74 100.272 52.336 100.416 51.968C100.56 51.6 100.76 51.284 101.016 51.02C101.28 50.756 101.592 50.552 101.952 50.408C102.32 50.256 102.728 50.18 103.176 50.18C103.592 50.18 103.988 50.256 104.364 50.408C104.748 50.552 105.08 50.776 105.36 51.08L104.544 51.824ZM107.081 53.552C107.081 53.8 107.133 54.028 107.237 54.236C107.349 54.436 107.493 54.608 107.669 54.752C107.845 54.896 108.049 55.008 108.281 55.088C108.513 55.168 108.753 55.208 109.001 55.208C109.337 55.208 109.629 55.132 109.877 54.98C110.125 54.82 110.353 54.612 110.561 54.356L111.377 54.98C110.777 55.756 109.937 56.144 108.857 56.144C108.409 56.144 108.001 56.068 107.633 55.916C107.273 55.764 106.965 55.556 106.709 55.292C106.461 55.02 106.269 54.704 106.133 54.344C105.997 53.976 105.929 53.58 105.929 53.156C105.929 52.732 106.001 52.34 106.145 51.98C106.297 51.612 106.501 51.296 106.757 51.032C107.021 50.76 107.333 50.548 107.693 50.396C108.053 50.244 108.445 50.168 108.869 50.168C109.373 50.168 109.797 50.256 110.141 50.432C110.493 50.608 110.781 50.84 111.005 51.128C111.229 51.408 111.389 51.728 111.485 52.088C111.589 52.44 111.641 52.8 111.641 53.168V53.552H107.081ZM110.489 52.688C110.481 52.448 110.441 52.228 110.369 52.028C110.305 51.828 110.205 51.656 110.069 51.512C109.933 51.36 109.761 51.244 109.553 51.164C109.353 51.076 109.117 51.032 108.845 51.032C108.581 51.032 108.337 51.084 108.113 51.188C107.897 51.284 107.713 51.412 107.561 51.572C107.409 51.732 107.289 51.912 107.201 52.112C107.121 52.304 107.081 52.496 107.081 52.688H110.489Z" fill="white"/>
<path d="M76.756 74.504H77.8L81.436 83H80.092L79.24 80.9H75.196L74.356 83H73.012L76.756 74.504ZM78.82 79.892L77.236 75.992H77.212L75.604 79.892H78.82ZM82.2652 77.312H83.2732V78.2H83.2972C83.3212 78.12 83.3812 78.02 83.4772 77.9C83.5812 77.78 83.7092 77.668 83.8612 77.564C84.0212 77.452 84.2052 77.36 84.4132 77.288C84.6292 77.208 84.8652 77.168 85.1212 77.168C85.5452 77.168 85.9012 77.256 86.1892 77.432C86.4772 77.608 86.7132 77.872 86.8972 78.224C87.0812 77.872 87.3412 77.608 87.6772 77.432C88.0132 77.256 88.3532 77.168 88.6972 77.168C89.1372 77.168 89.4972 77.24 89.7772 77.384C90.0572 77.528 90.2772 77.72 90.4372 77.96C90.5972 78.192 90.7052 78.46 90.7612 78.764C90.8252 79.06 90.8572 79.368 90.8572 79.688V83H89.7772V79.832C89.7772 79.616 89.7612 79.408 89.7292 79.208C89.7052 79.008 89.6492 78.832 89.5612 78.68C89.4732 78.528 89.3492 78.408 89.1892 78.32C89.0292 78.224 88.8172 78.176 88.5532 78.176C88.0332 78.176 87.6612 78.336 87.4372 78.656C87.2132 78.976 87.1012 79.388 87.1012 79.892V83H86.0212V80.024C86.0212 79.752 86.0052 79.504 85.9732 79.28C85.9492 79.056 85.8932 78.864 85.8052 78.704C85.7252 78.536 85.6052 78.408 85.4452 78.32C85.2932 78.224 85.0852 78.176 84.8212 78.176C84.6292 78.176 84.4412 78.216 84.2572 78.296C84.0812 78.368 83.9252 78.48 83.7892 78.632C83.6532 78.784 83.5452 78.98 83.4652 79.22C83.3852 79.452 83.3452 79.728 83.3452 80.048V83H82.2652V77.312ZM92.484 73.928H93.564V78.128H93.588C93.78 77.832 94.056 77.6 94.416 77.432C94.776 77.256 95.16 77.168 95.568 77.168C96.008 77.168 96.404 77.244 96.756 77.396C97.116 77.548 97.42 77.76 97.668 78.032C97.924 78.296 98.12 78.612 98.256 78.98C98.392 79.34 98.46 79.732 98.46 80.156C98.46 80.58 98.392 80.972 98.256 81.332C98.12 81.692 97.924 82.008 97.668 82.28C97.42 82.552 97.116 82.764 96.756 82.916C96.404 83.068 96.008 83.144 95.568 83.144C95.184 83.144 94.808 83.06 94.44 82.892C94.08 82.724 93.796 82.488 93.588 82.184H93.564V83H92.484V73.928ZM95.436 82.136C95.724 82.136 95.984 82.088 96.216 81.992C96.448 81.888 96.644 81.752 96.804 81.584C96.964 81.408 97.088 81.2 97.176 80.96C97.264 80.712 97.308 80.444 97.308 80.156C97.308 79.868 97.264 79.604 97.176 79.364C97.088 79.116 96.964 78.908 96.804 78.74C96.644 78.564 96.448 78.428 96.216 78.332C95.984 78.228 95.724 78.176 95.436 78.176C95.148 78.176 94.888 78.228 94.656 78.332C94.424 78.428 94.228 78.564 94.068 78.74C93.908 78.908 93.784 79.116 93.696 79.364C93.608 79.604 93.564 79.868 93.564 80.156C93.564 80.444 93.608 80.712 93.696 80.96C93.784 81.2 93.908 81.408 94.068 81.584C94.228 81.752 94.424 81.888 94.656 81.992C94.888 82.088 95.148 82.136 95.436 82.136ZM99.9039 77.312H100.984V83H99.9039V77.312ZM99.6519 75.272C99.6519 75.056 99.7279 74.872 99.8799 74.72C100.04 74.56 100.228 74.48 100.444 74.48C100.66 74.48 100.844 74.56 100.996 74.72C101.156 74.872 101.236 75.056 101.236 75.272C101.236 75.488 101.156 75.676 100.996 75.836C100.844 75.988 100.66 76.064 100.444 76.064C100.228 76.064 100.04 75.988 99.8799 75.836C99.7279 75.676 99.6519 75.488 99.6519 75.272ZM102.727 78.008C103.031 77.728 103.383 77.52 103.783 77.384C104.183 77.24 104.583 77.168 104.983 77.168C105.399 77.168 105.755 77.22 106.051 77.324C106.355 77.428 106.603 77.568 106.795 77.744C106.987 77.92 107.127 78.124 107.215 78.356C107.311 78.58 107.359 78.816 107.359 79.064V81.968C107.359 82.168 107.363 82.352 107.371 82.52C107.379 82.688 107.391 82.848 107.407 83H106.447C106.423 82.712 106.411 82.424 106.411 82.136H106.387C106.147 82.504 105.863 82.764 105.535 82.916C105.207 83.068 104.827 83.144 104.395 83.144C104.131 83.144 103.879 83.108 103.639 83.036C103.399 82.964 103.187 82.856 103.003 82.712C102.827 82.568 102.687 82.392 102.583 82.184C102.479 81.968 102.427 81.72 102.427 81.44C102.427 81.072 102.507 80.764 102.667 80.516C102.835 80.268 103.059 80.068 103.339 79.916C103.627 79.756 103.959 79.644 104.335 79.58C104.719 79.508 105.127 79.472 105.559 79.472H106.351V79.232C106.351 79.088 106.323 78.944 106.267 78.8C106.211 78.656 106.127 78.528 106.015 78.416C105.903 78.296 105.763 78.204 105.595 78.14C105.427 78.068 105.227 78.032 104.995 78.032C104.787 78.032 104.603 78.052 104.443 78.092C104.291 78.132 104.151 78.184 104.023 78.248C103.895 78.304 103.779 78.372 103.675 78.452C103.571 78.532 103.471 78.608 103.375 78.68L102.727 78.008ZM105.775 80.264C105.519 80.264 105.255 80.28 104.983 80.312C104.719 80.336 104.475 80.388 104.251 80.468C104.035 80.548 103.855 80.66 103.711 80.804C103.575 80.948 103.507 81.132 103.507 81.356C103.507 81.684 103.615 81.92 103.831 82.064C104.055 82.208 104.355 82.28 104.731 82.28C105.027 82.28 105.279 82.232 105.487 82.136C105.695 82.032 105.863 81.9 105.991 81.74C106.119 81.58 106.211 81.404 106.267 81.212C106.323 81.012 106.351 80.816 106.351 80.624V80.264H105.775ZM108.925 77.312H110.005V78.188H110.029C110.165 77.884 110.401 77.64 110.737 77.456C111.073 77.264 111.461 77.168 111.901 77.168C112.173 77.168 112.433 77.212 112.681 77.3C112.937 77.38 113.157 77.508 113.341 77.684C113.533 77.86 113.685 78.088 113.797 78.368C113.909 78.64 113.965 78.964 113.965 79.34V83H112.885V79.64C112.885 79.376 112.849 79.152 112.777 78.968C112.705 78.776 112.609 78.624 112.489 78.512C112.369 78.392 112.229 78.308 112.069 78.26C111.917 78.204 111.757 78.176 111.589 78.176C111.365 78.176 111.157 78.212 110.965 78.284C110.773 78.356 110.605 78.472 110.461 78.632C110.317 78.784 110.205 78.98 110.125 79.22C110.045 79.46 110.005 79.744 110.005 80.072V83H108.925V77.312ZM119.661 78.824C119.461 78.616 119.249 78.46 119.025 78.356C118.809 78.244 118.549 78.188 118.245 78.188C117.949 78.188 117.689 78.244 117.465 78.356C117.249 78.46 117.065 78.608 116.913 78.8C116.769 78.984 116.657 79.2 116.577 79.448C116.505 79.688 116.469 79.94 116.469 80.204C116.469 80.468 116.513 80.72 116.601 80.96C116.689 81.192 116.813 81.396 116.973 81.572C117.133 81.748 117.325 81.888 117.549 81.992C117.773 82.088 118.025 82.136 118.305 82.136C118.609 82.136 118.869 82.084 119.085 81.98C119.301 81.868 119.501 81.708 119.685 81.5L120.453 82.268C120.173 82.58 119.845 82.804 119.469 82.94C119.101 83.076 118.709 83.144 118.293 83.144C117.853 83.144 117.449 83.072 117.081 82.928C116.721 82.784 116.409 82.584 116.145 82.328C115.881 82.064 115.677 81.752 115.533 81.392C115.389 81.024 115.317 80.62 115.317 80.18C115.317 79.74 115.389 79.336 115.533 78.968C115.677 78.6 115.877 78.284 116.133 78.02C116.397 77.756 116.709 77.552 117.069 77.408C117.437 77.256 117.845 77.18 118.293 77.18C118.709 77.18 119.105 77.256 119.481 77.408C119.865 77.552 120.197 77.776 120.477 78.08L119.661 78.824ZM122.198 80.552C122.198 80.8 122.25 81.028 122.354 81.236C122.466 81.436 122.61 81.608 122.786 81.752C122.962 81.896 123.166 82.008 123.398 82.088C123.63 82.168 123.87 82.208 124.118 82.208C124.454 82.208 124.746 82.132 124.994 81.98C125.242 81.82 125.47 81.612 125.678 81.356L126.494 81.98C125.894 82.756 125.054 83.144 123.974 83.144C123.526 83.144 123.118 83.068 122.75 82.916C122.39 82.764 122.082 82.556 121.826 82.292C121.578 82.02 121.386 81.704 121.25 81.344C121.114 80.976 121.046 80.58 121.046 80.156C121.046 79.732 121.118 79.34 121.262 78.98C121.414 78.612 121.618 78.296 121.874 78.032C122.138 77.76 122.45 77.548 122.81 77.396C123.17 77.244 123.562 77.168 123.986 77.168C124.49 77.168 124.914 77.256 125.258 77.432C125.61 77.608 125.898 77.84 126.122 78.128C126.346 78.408 126.506 78.728 126.602 79.088C126.706 79.44 126.758 79.8 126.758 80.168V80.552H122.198ZM125.606 79.688C125.598 79.448 125.558 79.228 125.486 79.028C125.422 78.828 125.322 78.656 125.186 78.512C125.05 78.36 124.878 78.244 124.67 78.164C124.47 78.076 124.234 78.032 123.962 78.032C123.698 78.032 123.454 78.084 123.23 78.188C123.014 78.284 122.83 78.412 122.678 78.572C122.526 78.732 122.406 78.912 122.318 79.112C122.238 79.304 122.198 79.496 122.198 79.688H125.606Z" fill="white"/>
<path d="M74.008 101.504H75.724L78.424 107.936H78.472L81.148 101.504H82.864V110H81.712V103.016H81.688L78.82 110H78.052L75.184 103.016H75.16V110H74.008V101.504ZM89.731 110H88.651V109.124H88.627C88.491 109.428 88.255 109.676 87.919 109.868C87.583 110.052 87.195 110.144 86.755 110.144C86.475 110.144 86.211 110.1 85.963 110.012C85.715 109.932 85.495 109.804 85.303 109.628C85.119 109.452 84.971 109.228 84.859 108.956C84.747 108.676 84.691 108.348 84.691 107.972V104.312H85.771V107.672C85.771 107.936 85.807 108.164 85.879 108.356C85.951 108.54 86.047 108.692 86.167 108.812C86.287 108.924 86.423 109.008 86.575 109.064C86.735 109.112 86.899 109.136 87.067 109.136C87.291 109.136 87.499 109.1 87.691 109.028C87.883 108.956 88.051 108.844 88.195 108.692C88.339 108.532 88.451 108.332 88.531 108.092C88.611 107.852 88.651 107.568 88.651 107.24V104.312H89.731V110ZM94.383 105.74C94.255 105.58 94.095 105.448 93.903 105.344C93.719 105.232 93.491 105.176 93.219 105.176C92.963 105.176 92.739 105.232 92.547 105.344C92.363 105.448 92.271 105.604 92.271 105.812C92.271 105.98 92.323 106.116 92.427 106.22C92.539 106.324 92.667 106.408 92.811 106.472C92.963 106.536 93.123 106.584 93.291 106.616C93.459 106.648 93.603 106.676 93.723 106.7C93.955 106.756 94.171 106.824 94.371 106.904C94.579 106.984 94.755 107.088 94.899 107.216C95.051 107.344 95.167 107.5 95.247 107.684C95.335 107.868 95.379 108.092 95.379 108.356C95.379 108.676 95.311 108.952 95.175 109.184C95.039 109.408 94.863 109.592 94.647 109.736C94.431 109.88 94.183 109.984 93.903 110.048C93.631 110.112 93.355 110.144 93.075 110.144C92.603 110.144 92.187 110.072 91.827 109.928C91.475 109.784 91.159 109.52 90.879 109.136L91.695 108.464C91.871 108.64 92.067 108.796 92.283 108.932C92.499 109.068 92.763 109.136 93.075 109.136C93.211 109.136 93.347 109.124 93.483 109.1C93.627 109.068 93.751 109.024 93.855 108.968C93.967 108.904 94.055 108.828 94.119 108.74C94.191 108.644 94.227 108.536 94.227 108.416C94.227 108.256 94.175 108.124 94.071 108.02C93.975 107.916 93.855 107.836 93.711 107.78C93.575 107.716 93.427 107.668 93.267 107.636C93.115 107.596 92.979 107.564 92.859 107.54C92.627 107.484 92.407 107.42 92.199 107.348C91.991 107.276 91.807 107.18 91.647 107.06C91.487 106.94 91.359 106.788 91.263 106.604C91.167 106.42 91.119 106.192 91.119 105.92C91.119 105.624 91.179 105.368 91.299 105.152C91.427 104.928 91.591 104.744 91.791 104.6C91.999 104.456 92.231 104.348 92.487 104.276C92.751 104.204 93.015 104.168 93.279 104.168C93.663 104.168 94.031 104.24 94.383 104.384C94.735 104.528 95.015 104.768 95.223 105.104L94.383 105.74ZM96.775 104.312H97.855V110H96.775V104.312ZM96.523 102.272C96.523 102.056 96.599 101.872 96.751 101.72C96.911 101.56 97.099 101.48 97.315 101.48C97.531 101.48 97.715 101.56 97.867 101.72C98.027 101.872 98.107 102.056 98.107 102.272C98.107 102.488 98.027 102.676 97.867 102.836C97.715 102.988 97.531 103.064 97.315 103.064C97.099 103.064 96.911 102.988 96.751 102.836C96.599 102.676 96.523 102.488 96.523 102.272ZM103.642 105.824C103.442 105.616 103.23 105.46 103.006 105.356C102.79 105.244 102.53 105.188 102.226 105.188C101.93 105.188 101.67 105.244 101.446 105.356C101.23 105.46 101.046 105.608 100.894 105.8C100.75 105.984 100.638 106.2 100.558 106.448C100.486 106.688 100.45 106.94 100.45 107.204C100.45 107.468 100.494 107.72 100.582 107.96C100.67 108.192 100.794 108.396 100.954 108.572C101.114 108.748 101.306 108.888 101.53 108.992C101.754 109.088 102.006 109.136 102.286 109.136C102.59 109.136 102.85 109.084 103.066 108.98C103.282 108.868 103.482 108.708 103.666 108.5L104.434 109.268C104.154 109.58 103.826 109.804 103.45 109.94C103.082 110.076 102.69 110.144 102.274 110.144C101.834 110.144 101.43 110.072 101.062 109.928C100.702 109.784 100.39 109.584 100.126 109.328C99.8618 109.064 99.6578 108.752 99.5138 108.392C99.3698 108.024 99.2978 107.62 99.2978 107.18C99.2978 106.74 99.3698 106.336 99.5138 105.968C99.6578 105.6 99.8578 105.284 100.114 105.02C100.378 104.756 100.69 104.552 101.05 104.408C101.418 104.256 101.826 104.18 102.274 104.18C102.69 104.18 103.086 104.256 103.462 104.408C103.846 104.552 104.178 104.776 104.458 105.08L103.642 105.824Z" fill="white"/>
<path d="M73.012 129.504H74.212L76.084 136.296H76.108L78.112 129.504H79.432L81.436 136.296H81.46L83.332 129.504H84.532L82.06 138H80.848L78.784 131.064H78.76L76.708 138H75.496L73.012 129.504ZM85.443 132.312H86.523V138H85.443V132.312ZM85.191 130.272C85.191 130.056 85.267 129.872 85.419 129.72C85.579 129.56 85.767 129.48 85.983 129.48C86.199 129.48 86.383 129.56 86.535 129.72C86.695 129.872 86.775 130.056 86.775 130.272C86.775 130.488 86.695 130.676 86.535 130.836C86.383 130.988 86.199 131.064 85.983 131.064C85.767 131.064 85.579 130.988 85.419 130.836C85.267 130.676 85.191 130.488 85.191 130.272ZM88.6618 133.248H87.4378V132.312H88.6618V131.04C88.6618 130.28 88.8058 129.716 89.0938 129.348C89.3898 128.972 89.8938 128.784 90.6058 128.784C90.7258 128.784 90.8498 128.788 90.9778 128.796C91.1138 128.804 91.2578 128.828 91.4098 128.868L91.2898 129.828C91.1858 129.788 91.0858 129.76 90.9898 129.744C90.8938 129.728 90.7898 129.72 90.6778 129.72C90.4778 129.72 90.3178 129.752 90.1978 129.816C90.0778 129.872 89.9818 129.956 89.9098 130.068C89.8458 130.18 89.8018 130.316 89.7778 130.476C89.7618 130.628 89.7538 130.804 89.7538 131.004V132.312H91.0378V133.248H89.7418V138H88.6618V133.248ZM92.3219 132.312H93.4019V138H92.3219V132.312ZM92.0699 130.272C92.0699 130.056 92.1459 129.872 92.2979 129.72C92.4579 129.56 92.6459 129.48 92.8619 129.48C93.0779 129.48 93.2619 129.56 93.4139 129.72C93.5739 129.872 93.6539 130.056 93.6539 130.272C93.6539 130.488 93.5739 130.676 93.4139 130.836C93.2619 130.988 93.0779 131.064 92.8619 131.064C92.6459 131.064 92.4579 130.988 92.2979 130.836C92.1459 130.676 92.0699 130.488 92.0699 130.272Z" fill="white"/>
<path d="M74.092 155.504H77.08C77.624 155.504 78.072 155.58 78.424 155.732C78.776 155.876 79.052 156.064 79.252 156.296C79.46 156.52 79.604 156.776 79.684 157.064C79.764 157.344 79.804 157.616 79.804 157.88C79.804 158.144 79.764 158.42 79.684 158.708C79.604 158.988 79.46 159.244 79.252 159.476C79.052 159.7 78.776 159.888 78.424 160.04C78.072 160.184 77.624 160.256 77.08 160.256H75.244V164H74.092V155.504ZM75.244 159.248H76.756C76.98 159.248 77.2 159.232 77.416 159.2C77.64 159.16 77.836 159.092 78.004 158.996C78.18 158.9 78.32 158.764 78.424 158.588C78.528 158.404 78.58 158.168 78.58 157.88C78.58 157.592 78.528 157.36 78.424 157.184C78.32 157 78.18 156.86 78.004 156.764C77.836 156.668 77.64 156.604 77.416 156.572C77.2 156.532 76.98 156.512 76.756 156.512H75.244V159.248ZM80.9293 158.312H82.0093V159.188H82.0333C82.1053 159.036 82.2013 158.9 82.3213 158.78C82.4413 158.652 82.5733 158.544 82.7173 158.456C82.8693 158.368 83.0333 158.3 83.2093 158.252C83.3853 158.196 83.5613 158.168 83.7373 158.168C83.9133 158.168 84.0733 158.192 84.2173 158.24L84.1693 159.404C84.0813 159.38 83.9933 159.36 83.9053 159.344C83.8173 159.328 83.7293 159.32 83.6413 159.32C83.1133 159.32 82.7093 159.468 82.4293 159.764C82.1493 160.06 82.0093 160.52 82.0093 161.144V164H80.9293V158.312ZM85.4547 158.312H86.5347V164H85.4547V158.312ZM85.2027 156.272C85.2027 156.056 85.2787 155.872 85.4307 155.72C85.5907 155.56 85.7787 155.48 85.9947 155.48C86.2107 155.48 86.3947 155.56 86.5467 155.72C86.7067 155.872 86.7867 156.056 86.7867 156.272C86.7867 156.488 86.7067 156.676 86.5467 156.836C86.3947 156.988 86.2107 157.064 85.9947 157.064C85.7787 157.064 85.5907 156.988 85.4307 156.836C85.2787 156.676 85.2027 156.488 85.2027 156.272ZM92.3215 159.824C92.1215 159.616 91.9095 159.46 91.6855 159.356C91.4695 159.244 91.2095 159.188 90.9055 159.188C90.6095 159.188 90.3495 159.244 90.1255 159.356C89.9095 159.46 89.7255 159.608 89.5735 159.8C89.4295 159.984 89.3175 160.2 89.2375 160.448C89.1655 160.688 89.1295 160.94 89.1295 161.204C89.1295 161.468 89.1735 161.72 89.2615 161.96C89.3495 162.192 89.4735 162.396 89.6335 162.572C89.7935 162.748 89.9855 162.888 90.2095 162.992C90.4335 163.088 90.6855 163.136 90.9655 163.136C91.2695 163.136 91.5295 163.084 91.7455 162.98C91.9615 162.868 92.1615 162.708 92.3455 162.5L93.1135 163.268C92.8335 163.58 92.5055 163.804 92.1295 163.94C91.7615 164.076 91.3695 164.144 90.9535 164.144C90.5135 164.144 90.1095 164.072 89.7415 163.928C89.3815 163.784 89.0695 163.584 88.8055 163.328C88.5415 163.064 88.3375 162.752 88.1935 162.392C88.0495 162.024 87.9775 161.62 87.9775 161.18C87.9775 160.74 88.0495 160.336 88.1935 159.968C88.3375 159.6 88.5375 159.284 88.7935 159.02C89.0575 158.756 89.3695 158.552 89.7295 158.408C90.0975 158.256 90.5055 158.18 90.9535 158.18C91.3695 158.18 91.7655 158.256 92.1415 158.408C92.5255 158.552 92.8575 158.776 93.1375 159.08L92.3215 159.824ZM94.8586 161.552C94.8586 161.8 94.9106 162.028 95.0146 162.236C95.1266 162.436 95.2706 162.608 95.4466 162.752C95.6226 162.896 95.8266 163.008 96.0586 163.088C96.2906 163.168 96.5306 163.208 96.7786 163.208C97.1146 163.208 97.4066 163.132 97.6546 162.98C97.9026 162.82 98.1306 162.612 98.3386 162.356L99.1546 162.98C98.5546 163.756 97.7146 164.144 96.6346 164.144C96.1866 164.144 95.7786 164.068 95.4106 163.916C95.0506 163.764 94.7426 163.556 94.4866 163.292C94.2386 163.02 94.0466 162.704 93.9106 162.344C93.7746 161.976 93.7066 161.58 93.7066 161.156C93.7066 160.732 93.7786 160.34 93.9226 159.98C94.0746 159.612 94.2786 159.296 94.5346 159.032C94.7986 158.76 95.1106 158.548 95.4706 158.396C95.8306 158.244 96.2226 158.168 96.6466 158.168C97.1506 158.168 97.5746 158.256 97.9186 158.432C98.2706 158.608 98.5586 158.84 98.7826 159.128C99.0066 159.408 99.1666 159.728 99.2626 160.088C99.3666 160.44 99.4186 160.8 99.4186 161.168V161.552H94.8586ZM98.2666 160.688C98.2586 160.448 98.2186 160.228 98.1466 160.028C98.0826 159.828 97.9826 159.656 97.8466 159.512C97.7106 159.36 97.5386 159.244 97.3306 159.164C97.1306 159.076 96.8946 159.032 96.6226 159.032C96.3586 159.032 96.1146 159.084 95.8906 159.188C95.6746 159.284 95.4906 159.412 95.3386 159.572C95.1866 159.732 95.0666 159.912 94.9786 160.112C94.8986 160.304 94.8586 160.496 94.8586 160.688H98.2666Z" fill="white"/>
</svg>
