<svg width="466" height="469" viewBox="0 0 466 469" fill="none" xmlns="http://www.w3.org/2000/svg">
<rect y="0.834961" width="466" height="466" rx="5.825" fill="white"/>
<line x1="54.419" y1="99.561" x2="54.419" y2="418.276" stroke="black" stroke-width="1.35118"/>
<line x1="418.158" y1="418.951" x2="53.7431" y2="418.951" stroke="black" stroke-width="1.35118"/>
<line x1="418.158" y1="373.421" x2="53.7431" y2="373.421" stroke="black" stroke-opacity="0.38" stroke-width="1.35118"/>
<line x1="418.158" y1="327.89" x2="53.7431" y2="327.89" stroke="black" stroke-opacity="0.38" stroke-width="1.35118"/>
<line x1="418.158" y1="282.36" x2="53.7431" y2="282.36" stroke="black" stroke-opacity="0.38" stroke-width="1.35118"/>
<line x1="418.158" y1="236.829" x2="53.7431" y2="236.829" stroke="black" stroke-opacity="0.38" stroke-width="1.35118"/>
<line x1="418.158" y1="191.298" x2="53.7431" y2="191.298" stroke="black" stroke-opacity="0.38" stroke-width="1.35118"/>
<line x1="418.158" y1="145.767" x2="53.7431" y2="145.767" stroke="black" stroke-opacity="0.38" stroke-width="1.35118"/>
<line x1="418.158" y1="100.237" x2="53.7431" y2="100.237" stroke="black" stroke-opacity="0.38" stroke-width="1.35118"/>
<path d="M43.3463 423.999C45.2163 423.999 46.2919 422.414 46.2919 419.646C46.2919 416.899 45.1997 415.294 43.3463 415.294C41.4929 415.294 40.4007 416.899 40.4007 419.646C40.4007 422.414 41.4764 423.999 43.3463 423.999ZM43.3463 423.088C42.1135 423.088 41.3936 421.852 41.3936 419.646C41.3936 417.446 42.1217 416.188 43.3463 416.188C44.5709 416.188 45.299 417.446 45.299 419.646C45.299 421.852 44.5792 423.088 43.3463 423.088Z" fill="black"/>
<path d="M38.146 369.88H37.12L35.0018 371.286V372.329L37.0703 370.955H37.12V378.353H38.146V369.88ZM43.3463 378.468C45.2162 378.468 46.2919 376.884 46.2919 374.116C46.2919 371.369 45.1997 369.764 43.3463 369.764C41.4929 369.764 40.4007 371.369 40.4007 374.116C40.4007 376.884 41.4763 378.468 43.3463 378.468ZM43.3463 377.558C42.1134 377.558 41.3936 376.321 41.3936 374.116C41.3936 371.915 42.1217 370.658 43.3463 370.658C44.5708 370.658 45.299 371.915 45.299 374.116C45.299 376.321 44.5791 377.558 43.3463 377.558Z" fill="black"/>
<path d="M33.5291 332.822H38.8742V331.912H34.9357V331.845L36.8388 329.81C38.295 328.25 38.7253 327.522 38.7253 326.583C38.7253 325.276 37.6662 324.233 36.1768 324.233C34.6916 324.233 33.5622 325.243 33.5622 326.732H34.5385C34.5385 325.768 35.1632 325.127 36.1437 325.127C37.0622 325.127 37.7655 325.689 37.7655 326.583C37.7655 327.365 37.3062 327.944 36.3258 329.016L33.5291 332.077V332.822ZM43.3464 332.938C45.2163 332.938 46.292 331.353 46.292 328.585C46.292 325.838 45.1998 324.233 43.3464 324.233C41.493 324.233 40.4008 325.838 40.4008 328.585C40.4008 331.353 41.4764 332.938 43.3464 332.938ZM43.3464 332.027C42.1135 332.027 41.3937 330.79 41.3937 328.585C41.3937 326.384 42.1218 325.127 43.3464 325.127C44.5709 325.127 45.2991 326.384 45.2991 328.585C45.2991 330.79 44.5792 332.027 43.3464 332.027Z" fill="black"/>
<path d="M36.0279 287.407C37.6703 287.407 38.8907 286.377 38.8907 284.991C38.8907 283.916 38.2536 283.134 37.1863 282.956V282.89C38.0426 282.629 38.5763 281.926 38.5763 280.97C38.5763 279.77 37.6289 278.703 36.061 278.703C34.5965 278.703 33.3802 279.605 33.3305 280.937H34.3234C34.3606 280.093 35.1632 279.597 36.0444 279.597C36.9794 279.597 37.5834 280.163 37.5834 281.02C37.5834 281.913 36.8843 282.492 35.879 282.492H35.2005V283.403H35.879C37.1656 283.403 37.8813 284.056 37.8813 284.991C37.8813 285.889 37.0994 286.497 36.0113 286.497C35.0309 286.497 34.2531 285.992 34.191 285.173H33.1485C33.2105 286.505 34.3855 287.407 36.0279 287.407ZM43.3464 287.407C45.2163 287.407 46.292 285.823 46.292 283.055C46.292 280.308 45.1998 278.703 43.3464 278.703C41.493 278.703 40.4008 280.308 40.4008 283.055C40.4008 285.823 41.4764 287.407 43.3464 287.407ZM43.3464 286.497C42.1135 286.497 41.3937 285.26 41.3937 283.055C41.3937 280.854 42.1218 279.597 43.3464 279.597C44.5709 279.597 45.2991 280.854 45.2991 283.055C45.2991 285.26 44.5792 286.497 43.3464 286.497Z" fill="black"/>
<path d="M32.9096 240.023H36.8977V241.76H37.8741V240.023H39.0324V239.113H37.8741V233.288H36.6329L32.9096 239.179V240.023ZM36.8977 239.113H34.0183V239.046L36.8315 234.595H36.8977V239.113ZM43.3464 241.876C45.2163 241.876 46.292 240.292 46.292 237.524C46.292 234.777 45.1998 233.172 43.3464 233.172C41.493 233.172 40.4008 234.777 40.4008 237.524C40.4008 240.292 41.4764 241.876 43.3464 241.876ZM43.3464 240.966C42.1135 240.966 41.3937 239.729 41.3937 237.524C41.3937 235.323 42.1218 234.065 43.3464 234.065C44.5709 234.065 45.2991 235.323 45.2991 237.524C45.2991 239.729 44.5792 240.966 43.3464 240.966Z" fill="black"/>
<path d="M36.1427 196.345C37.7562 196.345 38.9394 195.154 38.9394 193.532C38.9394 191.89 37.7975 190.686 36.242 190.686C35.6711 190.686 35.1167 190.889 34.7692 191.166H34.7195L35.0174 188.667H38.5587V187.757H34.1569L33.6439 191.927L34.6037 192.043C34.9554 191.79 35.5552 191.608 36.0765 191.613C37.1563 191.621 37.9465 192.44 37.9465 193.549C37.9465 194.637 37.1852 195.435 36.1427 195.435C35.2739 195.435 34.583 194.877 34.5044 194.111H33.5115C33.5736 195.402 34.6864 196.345 36.1427 196.345ZM43.3464 196.345C45.2163 196.345 46.292 194.761 46.292 191.993C46.292 189.246 45.1998 187.641 43.3464 187.641C41.493 187.641 40.4008 189.246 40.4008 191.993C40.4008 194.761 41.4764 196.345 43.3464 196.345ZM43.3464 195.435C42.1135 195.435 41.3937 194.198 41.3937 191.993C41.3937 189.792 42.1218 188.535 43.3464 188.535C44.5709 188.535 45.2991 189.792 45.2991 191.993C45.2991 194.198 44.5792 195.435 43.3464 195.435Z" fill="black"/>
<path d="M36.1261 150.815C37.8389 150.836 38.9559 149.545 38.9559 147.969C38.9559 146.33 37.7437 145.156 36.2916 145.156C35.4187 145.156 34.6699 145.582 34.2065 146.281H34.1403C34.1445 144.2 34.9471 143.004 36.2585 143.004C37.1521 143.004 37.69 143.567 37.8803 144.345H38.8897C38.6829 143.013 37.6817 142.094 36.2585 142.094C34.3513 142.094 33.1805 143.782 33.1805 146.794C33.1805 149.926 34.7361 150.799 36.1261 150.815ZM36.1261 149.905C35.0629 149.905 34.2851 148.999 34.2893 147.985C34.2934 146.972 35.1084 146.066 36.1592 146.066C37.1976 146.066 37.963 146.918 37.963 147.969C37.963 149.044 37.1646 149.905 36.1261 149.905ZM43.3464 150.815C45.2163 150.815 46.292 149.231 46.292 146.463C46.292 143.716 45.1998 142.111 43.3464 142.111C41.493 142.111 40.4008 143.716 40.4008 146.463C40.4008 149.231 41.4764 150.815 43.3464 150.815ZM43.3464 149.905C42.1135 149.905 41.3937 148.668 41.3937 146.463C41.3937 144.262 42.1218 143.004 43.3464 143.004C44.5709 143.004 45.2991 144.262 45.2991 146.463C45.2991 148.668 44.5792 149.905 43.3464 149.905Z" fill="black"/>
<path d="M34.374 105.168H35.4497L39.2227 97.6555V96.6957H33.7949V97.6059H38.1636V97.6721L34.374 105.168ZM43.3463 105.284C45.2163 105.284 46.2919 103.7 46.2919 100.932C46.2919 98.1851 45.1997 96.5799 43.3463 96.5799C41.4929 96.5799 40.4007 98.1851 40.4007 100.932C40.4007 103.7 41.4764 105.284 43.3463 105.284ZM43.3463 104.374C42.1135 104.374 41.3936 103.137 41.3936 100.932C41.3936 98.7312 42.1217 97.4735 43.3463 97.4735C44.5709 97.4735 45.299 98.7312 45.299 100.932C45.299 103.137 44.5792 104.374 43.3463 104.374Z" fill="black"/>
<path d="M73.4687 425.203L69.186 429.486C68.4401 430.232 67.6824 430.276 67.0564 429.65C66.4859 429.079 66.4069 428.333 66.916 427.824L66.2022 427.111C65.2807 428.032 65.4299 429.31 66.4128 430.293C67.4542 431.335 68.7619 431.361 69.9115 430.211L74.1942 425.929L73.4687 425.203ZM69.9027 433.619L72.2021 432.525L74.6243 434.948L73.5302 437.247L74.2908 438.007L78.082 429.816L77.3331 429.068L69.1421 432.859L69.9027 433.619ZM73.0738 432.11L76.7364 430.366L76.7832 430.413L75.0397 434.076L73.0738 432.11ZM85.9659 437.7L85.2521 436.987L80.5364 441.702L80.4779 441.644L81.9172 433.652L81.2151 432.95L75.224 438.941L75.9494 439.666L80.6534 434.962L80.7119 435.021L79.2726 442.989L79.9747 443.691L85.9659 437.7Z" fill="black"/>
<path d="M97.2108 428.901L97.9362 429.626L100.616 426.947L103.214 429.544L103.857 428.901L101.259 426.303L103.284 424.279L106.151 427.146L106.794 426.502L103.202 422.91L97.2108 428.901ZM102.046 433.736L105.708 437.398L106.352 436.755L103.415 433.818L105.451 431.782L108.154 434.485L108.797 433.841L106.094 431.138L108.119 429.114L111.009 432.004L111.652 431.36L108.037 427.745L102.046 433.736ZM106.969 438.659L109.134 440.824C110.55 442.24 111.825 442.134 112.726 441.233C113.674 440.286 113.533 439.115 113.019 438.53L113.077 438.472C113.732 438.846 114.528 438.963 115.3 438.191C116.178 437.313 116.307 436.015 115.055 434.763L112.96 432.668L106.969 438.659ZM108.338 438.741L110.421 436.658L111.895 438.133C112.679 438.917 112.644 439.935 112.036 440.543C111.509 441.07 110.725 441.128 109.777 440.18L108.338 438.741ZM111.053 436.026L113.042 434.037L114.411 435.406C115.207 436.202 115.137 436.974 114.61 437.501C113.978 438.133 113.054 438.027 112.398 437.372L111.053 436.026Z" fill="black"/>
<path d="M135.229 422.91L129.238 428.901L129.916 429.58L134.468 425.028L134.527 425.086L131.847 431.51L132.502 432.166L138.926 429.486L138.985 429.544L134.433 434.096L135.112 434.775L141.103 428.784L140.237 427.918L133.228 430.855L133.158 430.785L136.095 423.776L135.229 422.91ZM136.812 436.475L139.111 435.381L141.534 437.803L140.44 440.103L141.2 440.863L144.991 432.672L144.242 431.923L136.051 435.715L136.812 436.475ZM139.983 434.966L143.646 433.222L143.693 433.269L141.949 436.932L139.983 434.966ZM142.133 441.797L142.859 442.522L145.199 440.182L146.51 441.492C146.562 441.545 146.612 441.595 146.665 441.642L145.585 445.248L146.428 446.091L147.548 442.262C148.572 442.765 149.552 442.499 150.348 441.703C151.407 440.644 151.553 439.234 150.149 437.83L148.124 435.805L142.133 441.797ZM145.854 439.526L148.206 437.174L149.482 438.45C150.453 439.421 150.354 440.27 149.634 440.989C148.914 441.709 148.101 441.773 147.142 440.814L145.854 439.526Z" fill="black"/>
<path d="M161.51 429.147L163.81 428.053L166.232 430.475L165.138 432.774L165.898 433.535L169.689 425.344L168.941 424.595L160.75 428.386L161.51 429.147ZM164.681 427.637L168.344 425.894L168.391 425.94L166.647 429.603L164.681 427.637ZM166.831 434.468L167.557 435.193L169.745 433.005L171.056 434.316C172.451 435.711 173.928 435.492 174.987 434.433C176.046 433.374 176.254 431.908 174.847 430.501L172.823 428.477L166.831 434.468ZM170.389 432.362L172.904 429.846L174.18 431.121C175.154 432.095 174.993 432.999 174.274 433.719C173.554 434.439 172.638 434.611 171.676 433.649L170.389 432.362ZM172.06 439.697L172.786 440.422L175.126 438.082L176.437 439.393C176.489 439.445 176.539 439.495 176.592 439.542L175.512 443.149L176.355 443.991L177.475 440.162C178.499 440.665 179.479 440.399 180.275 439.603C181.334 438.544 181.48 437.134 180.076 435.73L178.052 433.706L172.06 439.697ZM175.782 437.427L178.134 435.075L179.409 436.35C180.38 437.321 180.281 438.17 179.561 438.889C178.841 439.609 178.028 439.673 177.069 438.714L175.782 437.427Z" fill="black"/>
<path d="M199.282 422.91L193.291 428.901L193.97 429.58L198.522 425.028L198.58 425.086L195.901 431.51L196.556 432.166L202.98 429.486L203.039 429.544L198.487 434.096L199.165 434.775L205.157 428.784L204.291 427.918L197.282 430.855L197.211 430.785L200.148 423.776L199.282 422.91ZM200.866 436.475L203.165 435.381L205.587 437.803L204.493 440.103L205.254 440.863L209.045 432.672L208.296 431.923L200.105 435.715L200.866 436.475ZM204.037 434.966L207.699 433.222L207.746 433.269L206.003 436.932L204.037 434.966ZM211.052 434.679L209.695 440.366L207.226 442.835L207.951 443.561L210.42 441.092L216.107 439.734L215.276 438.903L210.818 440.038L210.748 439.968L211.883 435.51L211.052 434.679Z" fill="black"/>
<path d="M233.603 425.203L229.32 429.486C228.574 430.232 227.816 430.276 227.19 429.65C226.62 429.079 226.541 428.333 227.05 427.824L226.336 427.111C225.415 428.032 225.564 429.31 226.547 430.293C227.588 431.335 228.896 431.361 230.046 430.211L234.328 425.929L233.603 425.203ZM239.714 431.314L235.747 435.281C234.811 436.217 233.547 435.983 232.693 435.129C231.839 434.275 231.605 433.011 232.541 432.075L236.508 428.108L235.782 427.383L231.815 431.349C230.47 432.695 230.751 434.544 232.014 435.808C233.278 437.071 235.127 437.352 236.473 436.007L240.439 432.04L239.714 431.314ZM246.639 438.239L245.925 437.526L241.209 442.241L241.151 442.183L242.59 434.191L241.888 433.489L235.897 439.48L236.622 440.205L241.326 435.501L241.385 435.56L239.946 443.528L240.648 444.23L246.639 438.239Z" fill="black"/>
<path d="M265.63 425.203L261.347 429.486C260.601 430.232 259.843 430.276 259.217 429.65C258.647 429.079 258.568 428.333 259.077 427.824L258.363 427.111C257.442 428.032 257.591 429.31 258.574 430.293C259.615 431.335 260.923 431.361 262.072 430.211L266.355 425.929L265.63 425.203ZM271.741 431.314L267.774 435.281C266.838 436.217 265.574 435.983 264.72 435.129C263.866 434.275 263.632 433.011 264.568 432.075L268.535 428.108L267.809 427.383L263.842 431.349C262.497 432.695 262.777 434.544 264.041 435.808C265.305 437.071 267.154 437.352 268.499 436.007L272.466 432.04L271.741 431.314ZM267.924 439.48L271.434 442.99L272.078 442.347L269.293 439.562L274.64 434.214L273.915 433.489L267.924 439.48Z" fill="black"/>
<path d="M289.618 429.147L291.917 428.053L294.339 430.475L293.245 432.774L294.006 433.535L297.797 425.344L297.048 424.595L288.857 428.386L289.618 429.147ZM292.789 427.637L296.451 425.894L296.498 425.94L294.755 429.603L292.789 427.637ZM302.872 434.163L303.621 434.912C304.557 433.531 304.381 431.764 303.118 430.5C301.582 428.964 299.315 429.061 297.419 430.957C295.523 432.852 295.418 435.111 297.01 436.702C298.437 438.13 300.406 438.197 301.889 436.714L302.533 436.07L300.251 433.788L299.607 434.432L301.187 436.012C300.09 437.068 298.703 437.038 297.688 436.023C296.577 434.912 296.565 433.215 298.121 431.659C299.677 430.102 301.374 430.114 302.439 431.179C303.305 432.045 303.404 433.121 302.872 434.163ZM310.702 438.249L306.736 442.216C305.799 443.152 304.536 442.918 303.681 442.063C302.827 441.209 302.593 439.946 303.529 439.009L307.496 435.043L306.771 434.317L302.804 438.284C301.458 439.63 301.739 441.478 303.003 442.742C304.267 444.006 306.115 444.287 307.461 442.941L311.428 438.974L310.702 438.249Z" fill="black"/>
<path d="M329.168 427.684L329.871 428.386C330.742 427.45 330.584 425.94 329.426 424.782C328.279 423.635 326.711 423.401 325.705 424.408C324.897 425.215 325.003 426.28 325.67 427.485L326.196 428.433C326.653 429.24 326.992 430.024 326.395 430.621C325.74 431.276 324.675 431.077 323.844 430.247C323.131 429.533 322.815 428.585 323.435 427.848L322.686 427.099C321.773 428.152 321.902 429.615 323.189 430.902C324.57 432.283 326.114 432.306 327.086 431.335C328.209 430.211 327.507 428.784 327.051 428L326.606 427.228C326.278 426.666 325.798 425.718 326.442 425.074C327.015 424.501 327.963 424.606 328.759 425.402C329.484 426.128 329.689 427.023 329.168 427.684ZM326.652 434.154L330.314 437.817L330.958 437.173L328.021 434.236L330.057 432.2L332.76 434.903L333.404 434.259L330.701 431.556L332.725 429.532L335.615 432.422L336.259 431.779L332.643 428.163L326.652 434.154ZM331.575 439.077L332.301 439.803L334.489 437.615L335.8 438.925C337.195 440.321 338.672 440.101 339.731 439.042C340.79 437.983 340.998 436.518 339.591 435.111L337.566 433.086L331.575 439.077ZM335.133 436.971L337.648 434.455L338.924 435.731C339.898 436.705 339.737 437.609 339.017 438.329C338.298 439.048 337.382 439.221 336.42 438.258L335.133 436.971Z" fill="black"/>
<path d="M361.476 430.96C363.372 429.065 363.442 426.771 361.909 425.238C360.376 423.705 358.083 423.776 356.187 425.671C354.292 427.567 354.221 429.86 355.754 431.393C357.287 432.926 359.581 432.856 361.476 430.96ZM360.774 430.258C359.218 431.815 357.521 431.803 356.433 430.715C355.345 429.626 355.333 427.93 356.889 426.373C358.446 424.817 360.142 424.829 361.23 425.917C362.319 427.005 362.33 428.702 360.774 430.258ZM368.64 435.878C369.647 434.427 369.389 432.718 368.184 431.513C366.651 429.98 364.358 430.051 362.462 431.946C360.566 433.842 360.496 436.135 362.029 437.668C363.234 438.873 364.943 439.131 366.394 438.124L365.668 437.399C364.662 438.054 363.503 437.785 362.708 436.989C361.62 435.901 361.608 434.205 363.164 432.648C364.72 431.092 366.417 431.104 367.505 432.192C368.301 432.988 368.57 434.146 367.915 435.152L368.64 435.878ZM370.714 435.494L372.598 437.378L367.25 442.725L367.976 443.451L373.323 438.103L375.207 439.987L375.851 439.344L371.357 434.85L370.714 435.494Z" fill="black"/>
<path d="M396.194 427.661L395.481 426.947L390.765 431.662L390.706 431.604L392.146 423.612L391.444 422.91L385.452 428.901L386.178 429.626L390.882 424.922L390.94 424.981L389.501 432.95L390.203 433.652L396.194 427.661ZM399.706 437.163C401.601 435.267 401.671 432.974 400.138 431.441C398.606 429.908 396.312 429.978 394.416 431.874C392.521 433.769 392.451 436.063 393.984 437.596C395.516 439.129 397.81 439.058 399.706 437.163ZM399.003 436.461C397.447 438.017 395.75 438.005 394.662 436.917C393.574 435.829 393.562 434.132 395.119 432.576C396.675 431.02 398.372 431.031 399.46 432.119C400.548 433.208 400.56 434.904 399.003 436.461ZM403.885 435.351L403.125 434.591L399.333 442.782L400.082 443.531L408.273 439.739L407.513 438.979L400.691 442.243L400.62 442.173L403.885 435.351Z" fill="black"/>
<path d="M419.328 430.75C421.154 432.575 423.318 432.47 425.191 430.598C427.051 428.737 427.145 426.584 425.401 424.84L423.47 422.91L417.479 428.901L419.328 430.75ZM418.848 428.983L423.552 424.279L424.711 425.437C426.115 426.841 425.939 428.445 424.488 429.895C423.026 431.358 421.411 431.545 419.925 430.059L418.848 428.983ZM423.4 434.822L427.063 438.484L427.706 437.841L424.769 434.904L426.805 432.868L429.508 435.571L430.152 434.927L427.449 432.224L429.473 430.2L432.364 433.09L433.007 432.446L429.391 428.831L423.4 434.822ZM437.263 440.447C438.27 438.996 438.012 437.288 436.807 436.083C435.274 434.55 432.981 434.62 431.085 436.516C429.19 438.411 429.119 440.705 430.652 442.238C431.857 443.443 433.566 443.7 435.017 442.694L434.291 441.968C433.285 442.624 432.127 442.355 431.331 441.559C430.243 440.471 430.231 438.774 431.787 437.218C433.344 435.661 435.04 435.673 436.128 436.761C436.924 437.557 437.193 438.715 436.538 439.722L437.263 440.447Z" fill="black"/>
<path d="M54.937 376.183L121.944 190.625L169.193 204.37L250.805 198.356L302.349 260.209L334.134 231.86L391.692 198.356L418.323 190.625" stroke="#BBDEFB" stroke-width="2.70237"/>
<path d="M54.937 346.975L78.991 258.491L182.938 266.223L237.06 223.269L312.658 217.256L356.47 239.592L417.464 163.994" stroke="#BBDEFB" stroke-width="2.70237"/>
<path d="M54.0781 330.653L116.79 281.686L148.576 273.095L204.415 228.424L277.436 273.095L326.403 220.692L371.074 151.967L413.169 127.054" stroke="#2C98F0" stroke-width="5.40473"/>
<path fill-rule="evenodd" clip-rule="evenodd" d="M18.6399 55.5898H419.4V56.7548H18.6399V55.5898Z" fill="black" fill-opacity="0.12"/>
<path d="M22.7439 35.145H24.4384L27.4303 24.3423H27.5363L30.5282 35.145H32.2227L35.9296 21.5887H34.2615L31.4284 32.6297H31.296L28.41 21.5887H26.5566L23.6706 32.6297H23.5382L20.7051 21.5887H19.0371L22.7439 35.145ZM41.1217 35.3568C43.8754 35.3568 45.7288 33.2651 45.7288 30.1143C45.7288 26.9371 43.8754 24.8454 41.1217 24.8454C38.3681 24.8454 36.5147 26.9371 36.5147 30.1143C36.5147 33.2651 38.3681 35.3568 41.1217 35.3568ZM41.1217 33.9535C39.03 33.9535 38.0769 32.1531 38.0769 30.1143C38.0769 28.0756 39.03 26.2487 41.1217 26.2487C43.2134 26.2487 44.1666 28.0756 44.1666 30.1143C44.1666 32.1531 43.2134 33.9535 41.1217 33.9535ZM48.2881 35.145H49.8503V28.711C49.8503 27.3342 50.9359 26.3281 52.4186 26.3281C52.8356 26.3281 53.2659 26.4075 53.3718 26.434V24.8454C53.1931 24.8321 52.7827 24.8189 52.551 24.8189C51.333 24.8189 50.2739 25.5073 49.9033 26.5134H49.7974V24.9777H48.2881V35.145ZM58.928 35.3568C60.8874 35.3568 61.5493 34.1389 61.8935 33.5829H62.0788V35.145H63.588V21.5887H62.0259V26.5929H61.8935C61.5493 26.0633 60.9403 24.8454 58.9545 24.8454C56.3862 24.8454 54.6122 26.8841 54.6122 30.0879C54.6122 33.3181 56.3862 35.3568 58.928 35.3568ZM59.1399 33.9535C57.1805 33.9535 56.1744 32.2325 56.1744 30.0614C56.1744 27.9167 57.1541 26.2487 59.1399 26.2487C61.0462 26.2487 62.0524 27.7843 62.0524 30.0614C62.0524 32.3649 61.0197 33.9535 59.1399 33.9535ZM72.4698 35.145H74.1114V29.8496H77.0769C77.196 29.8496 77.3086 29.8496 77.4211 29.8429L80.2806 35.145H82.187L79.1223 29.5451C80.8499 28.956 81.6575 27.546 81.6575 25.7456C81.6575 23.3494 80.2277 21.5887 77.0504 21.5887H72.4698V35.145ZM74.1114 28.3668V23.0449H76.9975C79.1951 23.0449 80.0423 24.1172 80.0423 25.7456C80.0423 27.3739 79.1951 28.3668 77.0239 28.3668H74.1114ZM87.3478 35.3833C89.1217 35.3833 90.0484 34.4301 90.3662 33.7682H90.4456V35.145H92.0078V28.4463C92.0078 25.216 89.5454 24.8454 88.248 24.8454C86.7123 24.8454 84.9648 25.3749 84.1705 27.2283L85.6532 27.7579C85.9974 27.0165 86.8116 26.2222 88.3009 26.2222C89.7373 26.2222 90.4456 26.9834 90.4456 28.2874V28.3404C90.4456 29.095 89.6778 29.0288 87.8243 29.2671C85.9378 29.512 83.8792 29.929 83.8792 32.259C83.8792 34.2448 85.4149 35.3833 87.3478 35.3833ZM87.586 33.98C86.3416 33.98 85.4414 33.424 85.4414 32.3384C85.4414 31.147 86.527 30.7763 87.7449 30.6174C88.4068 30.538 90.1808 30.3526 90.4456 30.0349V31.4647C90.4456 32.7356 89.4395 33.98 87.586 33.98ZM96.5959 29.0288C96.5959 27.2548 97.6947 26.2487 99.1907 26.2487C100.64 26.2487 101.521 27.1952 101.521 28.7905V35.145H103.083V28.6846C103.083 26.0898 101.699 24.8454 99.6408 24.8454C98.1051 24.8454 97.152 25.5338 96.6754 26.5664H96.543V24.9777H95.0338V35.145H96.5959V29.0288ZM106.112 35.145H107.674V31.3389L108.767 30.3262L112.573 35.145H114.558L109.945 29.32L114.241 24.9777H112.308L107.86 29.5054H107.674V21.5887H106.112V35.145ZM121.314 23.0449H125.577V35.145H127.218V23.0449H131.481V21.5887H121.314V23.0449ZM132.922 35.145H134.484V28.711C134.484 27.3342 135.569 26.3281 137.052 26.3281C137.469 26.3281 137.899 26.4075 138.005 26.434V24.8454C137.827 24.8321 137.416 24.8189 137.185 24.8189C135.967 24.8189 134.908 25.5073 134.537 26.5134H134.431V24.9777H132.922V35.145ZM143.985 35.3568C146.051 35.3568 147.56 34.3242 148.036 32.7885L146.527 32.3649C146.13 33.424 145.21 33.9535 143.985 33.9535C142.152 33.9535 140.887 32.7687 140.815 30.5909H148.195V29.929C148.195 26.1427 145.945 24.8454 143.826 24.8454C141.073 24.8454 139.246 27.0165 139.246 30.1408C139.246 33.2651 141.046 35.3568 143.985 35.3568ZM140.815 29.2406C140.921 27.6586 142.039 26.2487 143.826 26.2487C145.521 26.2487 146.607 27.5196 146.607 29.2406H140.815ZM152.308 29.0288C152.308 27.2548 153.407 26.2487 154.903 26.2487C156.353 26.2487 157.233 27.1952 157.233 28.7905V35.145H158.795V28.6846C158.795 26.0898 157.412 24.8454 155.353 24.8454C153.818 24.8454 152.864 25.5338 152.388 26.5664H152.255V24.9777H150.746V35.145H152.308V29.0288ZM165.664 35.3568C167.623 35.3568 168.285 34.1389 168.629 33.5829H168.815V35.145H170.324V21.5887H168.762V26.5929H168.629C168.285 26.0633 167.676 24.8454 165.69 24.8454C163.122 24.8454 161.348 26.8841 161.348 30.0879C161.348 33.3181 163.122 35.3568 165.664 35.3568ZM165.876 33.9535C163.916 33.9535 162.91 32.2325 162.91 30.0614C162.91 27.9167 163.89 26.2487 165.876 26.2487C167.782 26.2487 168.788 27.7843 168.788 30.0614C168.788 32.3649 167.756 33.9535 165.876 33.9535ZM180.778 27.2548C180.289 25.8118 179.19 24.8454 177.178 24.8454C175.033 24.8454 173.444 26.0633 173.444 27.7843C173.444 29.1876 174.278 30.1276 176.145 30.5645L177.839 30.9616C178.865 31.1999 179.349 31.6897 179.349 32.3914C179.349 33.2651 178.422 33.98 176.966 33.98C175.688 33.98 174.887 33.4306 174.609 32.3384L173.126 32.7091C173.491 34.4368 174.914 35.3568 176.992 35.3568C179.355 35.3568 180.964 34.0661 180.964 32.312C180.964 30.8954 180.077 30.0018 178.263 29.5583L176.754 29.1876C175.549 28.8898 175.006 28.486 175.006 27.7049C175.006 26.8312 175.933 26.1957 177.178 26.1957C178.541 26.1957 179.104 26.9503 179.375 27.652L180.778 27.2548Z" fill="black" fill-opacity="0.87"/>
</svg>
