<svg width="472" height="472" viewBox="0 0 472 472" fill="none" xmlns="http://www.w3.org/2000/svg">
<rect width="472" height="472" rx="5.9" fill="white"/>
<path fill-rule="evenodd" clip-rule="evenodd" d="M18.8799 55.46L449.58 55.46V56.64L18.8799 56.64V55.46Z" fill="black" fill-opacity="0.12"/>
<path d="M23.0367 34.52H24.7531L27.7835 23.5782H27.8908L30.9212 34.52H32.6376L36.3922 20.7891H34.7026L31.8331 31.9723H31.699L28.7758 20.7891H26.8985L23.9753 31.9723H23.8412L20.9717 20.7891H19.2822L23.0367 34.52ZM41.6512 34.7346C44.4403 34.7346 46.3176 32.6159 46.3176 29.4246C46.3176 26.2064 44.4403 24.0877 41.6512 24.0877C38.8621 24.0877 36.9848 26.2064 36.9848 29.4246C36.9848 32.6159 38.8621 34.7346 41.6512 34.7346ZM41.6512 33.3132C39.5326 33.3132 38.5671 31.4896 38.5671 29.4246C38.5671 27.3596 39.5326 25.5091 41.6512 25.5091C43.7698 25.5091 44.7353 27.3596 44.7353 29.4246C44.7353 31.4896 43.7698 33.3132 41.6512 33.3132ZM48.9099 34.52H50.4922V28.0032C50.4922 26.6087 51.5917 25.5896 53.0935 25.5896C53.5159 25.5896 53.9517 25.67 54.059 25.6968V24.0877C53.8779 24.0743 53.4623 24.0609 53.2276 24.0609C51.994 24.0609 50.9212 24.7582 50.5458 25.7773H50.4385V24.2218H48.9099V34.52ZM59.6868 34.7346C61.6713 34.7346 62.3418 33.5009 62.6904 32.9377H62.8781V34.52H64.4068V20.7891H62.8245V25.8577H62.6904C62.3418 25.3214 61.7249 24.0877 59.7136 24.0877C57.1122 24.0877 55.3154 26.1527 55.3154 29.3977C55.3154 32.6696 57.1122 34.7346 59.6868 34.7346ZM59.9013 33.3132C57.9168 33.3132 56.8977 31.57 56.8977 29.3709C56.8977 27.1987 57.8899 25.5091 59.9013 25.5091C61.8322 25.5091 62.8513 27.0646 62.8513 29.3709C62.8513 31.7041 61.8054 33.3132 59.9013 33.3132ZM73.4029 34.52H75.0657V29.1564H78.0693C78.19 29.1564 78.304 29.1564 78.4179 29.1497L81.3143 34.52H83.2452L80.141 28.848C81.8909 28.2513 82.7088 26.8232 82.7088 24.9996C82.7088 22.5725 81.2607 20.7891 78.0425 20.7891H73.4029V34.52ZM75.0657 27.6546V22.2641H77.9888C80.2147 22.2641 81.0729 23.3502 81.0729 24.9996C81.0729 26.6489 80.2147 27.6546 78.0157 27.6546H75.0657ZM88.4724 34.7614C90.2692 34.7614 91.2079 33.7959 91.5297 33.1255H91.6101V34.52H93.1924V27.735C93.1924 24.4632 90.6983 24.0877 89.3842 24.0877C87.8288 24.0877 86.0588 24.6241 85.2542 26.5014L86.756 27.0377C87.1047 26.2868 87.9293 25.4823 89.4379 25.4823C90.8927 25.4823 91.6101 26.2533 91.6101 27.5741V27.6277C91.6101 28.3921 90.8324 28.325 88.9551 28.5664C87.0443 28.8145 84.9592 29.2368 84.9592 31.5968C84.9592 33.6082 86.5147 34.7614 88.4724 34.7614ZM88.7138 33.34C87.4533 33.34 86.5415 32.7768 86.5415 31.6773C86.5415 30.4705 87.641 30.095 88.8747 29.9341C89.5451 29.8537 91.3419 29.6659 91.6101 29.3441V30.7923C91.6101 32.0796 90.591 33.34 88.7138 33.34ZM97.8397 28.325C97.8397 26.5282 98.9526 25.5091 100.468 25.5091C101.936 25.5091 102.828 26.4679 102.828 28.0837V34.52H104.41V27.9764C104.41 25.3482 103.009 24.0877 100.924 24.0877C99.3683 24.0877 98.4028 24.785 97.9201 25.8309H97.786V24.2218H96.2574V34.52H97.8397V28.325ZM107.478 34.52H109.061V30.6649L110.167 29.6391L114.022 34.52H116.033L111.36 28.62L115.712 24.2218H113.754L109.248 28.8077H109.061V20.7891H107.478V34.52ZM131.833 24.2218H130.117L127.274 32.4282H127.167L124.324 24.2218H122.608L126.416 34.52H128.025L131.833 24.2218ZM141.393 26.5282C140.897 25.0666 139.784 24.0877 137.746 24.0877C135.574 24.0877 133.964 25.3214 133.964 27.0646C133.964 28.4859 134.809 29.438 136.7 29.8805L138.416 30.2827C139.455 30.5241 139.945 31.0202 139.945 31.7309C139.945 32.6159 139.006 33.34 137.531 33.34C136.237 33.34 135.426 32.7835 135.144 31.6773L133.643 32.0527C134.011 33.8026 135.453 34.7346 137.558 34.7346C139.952 34.7346 141.581 33.4272 141.581 31.6505C141.581 30.2157 140.682 29.3106 138.845 28.8614L137.317 28.4859C136.096 28.1842 135.547 27.7752 135.547 26.9841C135.547 26.0991 136.485 25.4555 137.746 25.4555C139.127 25.4555 139.697 26.2198 139.972 26.9305L141.393 26.5282ZM145.293 34.6273C145.957 34.6273 146.5 34.0842 146.5 33.4205C146.5 32.7567 145.957 32.2137 145.293 32.2137C144.629 32.2137 144.086 32.7567 144.086 33.4205C144.086 34.0842 144.629 34.6273 145.293 34.6273ZM156.88 20.7891H155.217V34.52H156.88V20.7891ZM161.759 28.325C161.759 26.5282 162.872 25.5091 164.387 25.5091C165.855 25.5091 166.747 26.4679 166.747 28.0837V34.52H168.329V27.9764C168.329 25.3482 166.928 24.0877 164.843 24.0877C163.287 24.0877 162.322 24.785 161.839 25.8309H161.705V24.2218H160.177V34.52H161.759V28.325ZM175.286 34.7346C177.271 34.7346 177.941 33.5009 178.29 32.9377L178.478 32.9377V34.52H180.006V20.7891H178.424V25.8577H178.29C177.941 25.3214 177.324 24.0877 175.313 24.0877C172.712 24.0877 170.915 26.1527 170.915 29.3977C170.915 32.6696 172.712 34.7346 175.286 34.7346ZM175.501 33.3132C173.516 33.3132 172.497 31.57 172.497 29.3709C172.497 27.1987 173.489 25.5091 175.501 25.5091C177.432 25.5091 178.451 27.0646 178.451 29.3709C178.451 31.7041 177.405 33.3132 175.501 33.3132ZM189.791 30.3096C189.791 32.2405 188.316 33.1255 187.136 33.1255C185.822 33.1255 184.883 32.16 184.883 30.6582V24.2218H183.301V30.7655C183.301 33.3937 184.695 34.6541 186.626 34.6541C188.182 34.6541 189.201 33.8227 189.684 32.7768H189.791V34.52H191.373V24.2218H189.791V30.3096ZM201.743 26.5282C201.247 25.0666 200.134 24.0877 198.095 24.0877C195.923 24.0877 194.314 25.3214 194.314 27.0646C194.314 28.4859 195.159 29.438 197.049 29.8805L198.766 30.2827C199.805 30.5241 200.295 31.0202 200.295 31.7309C200.295 32.6159 199.356 33.34 197.881 33.34C196.587 33.34 195.776 32.7835 195.494 31.6773L193.992 32.0527C194.361 33.8026 195.802 34.7346 197.908 34.7346C200.301 34.7346 201.93 33.4272 201.93 31.6505C201.93 30.2157 201.032 29.3106 199.195 28.8614L197.666 28.4859C196.446 28.1842 195.896 27.7752 195.896 26.9841C195.896 26.0991 196.835 25.4555 198.095 25.4555C199.477 25.4555 200.046 26.2198 200.321 26.9305L201.743 26.5282ZM208.968 24.2218H206.769V21.7546H205.186V24.2218H203.631V25.5627H205.186V31.9991C205.186 33.7959 206.635 34.6541 207.976 34.6541C208.566 34.6541 208.941 34.5468 209.156 34.4664L208.834 33.045C208.7 33.0718 208.485 33.1255 208.136 33.1255C207.439 33.1255 206.769 32.9109 206.769 31.57V25.5627H208.968V24.2218ZM211.525 34.52H213.107V28.0032C213.107 26.6087 214.207 25.5896 215.709 25.5896C216.131 25.5896 216.567 25.67 216.674 25.6968V24.0877C216.493 24.0743 216.077 24.0609 215.843 24.0609C214.609 24.0609 213.536 24.7582 213.161 25.7773H213.054V24.2218H211.525V34.52ZM220.059 38.355C221.487 38.355 222.5 37.5974 223.09 36.0218L227.474 24.2487L225.745 24.2218L222.902 32.4282H222.795L219.952 24.2218H218.236L222.044 34.5737L221.749 35.3782C221.186 36.9202 220.461 37.0677 219.308 36.7727L218.906 38.1673C219.067 38.2477 219.523 38.355 220.059 38.355ZM236.01 34.52L237.391 30.6314H242.942L244.323 34.52H246.066L241.025 20.7891H239.308L234.266 34.52H236.01ZM237.914 29.1564L240.113 22.9614H240.22L242.419 29.1564H237.914ZM255.298 24.2218H253.582L250.739 32.4282H250.632L247.789 24.2218H246.072L249.881 34.52H251.49L255.298 24.2218ZM261.512 34.7346C263.604 34.7346 265.133 33.6887 265.616 32.1332L264.087 31.7041C263.685 32.7768 262.753 33.3132 261.512 33.3132C259.655 33.3132 258.375 32.1131 258.301 29.9073H265.776V29.2368C265.776 25.4018 263.497 24.0877 261.351 24.0877C258.562 24.0877 256.712 26.2868 256.712 29.4514C256.712 32.6159 258.536 34.7346 261.512 34.7346ZM258.301 28.5396C258.408 26.9372 259.541 25.5091 261.351 25.5091C263.068 25.5091 264.167 26.7964 264.167 28.5396H258.301ZM268.36 34.52H269.943V28.0032C269.943 26.6087 271.042 25.5896 272.544 25.5896C272.966 25.5896 273.402 25.67 273.509 25.6968V24.0877C273.328 24.0743 272.913 24.0609 272.678 24.0609C271.444 24.0609 270.372 24.7582 269.996 25.7773H269.889V24.2218L268.36 24.2218V34.52ZM278.593 34.7614C280.389 34.7614 281.328 33.7959 281.65 33.1255H281.73V34.52H283.313V27.735C283.313 24.4632 280.818 24.0877 279.504 24.0877C277.949 24.0877 276.179 24.6241 275.374 26.5014L276.876 27.0377C277.225 26.2868 278.049 25.4823 279.558 25.4823C281.013 25.4823 281.73 26.2533 281.73 27.5741V27.6277C281.73 28.3921 280.953 28.325 279.075 28.5664C277.164 28.8145 275.079 29.2368 275.079 31.5968C275.079 33.6082 276.635 34.7614 278.593 34.7614ZM278.834 33.34C277.573 33.34 276.662 32.7768 276.662 31.6773C276.662 30.4705 277.761 30.095 278.995 29.9341C279.665 29.8537 281.462 29.6659 281.73 29.3441V30.7923C281.73 32.0796 280.711 33.34 278.834 33.34ZM290.534 38.5964C293.002 38.5964 294.986 37.47 294.986 34.815V24.2218H293.458V25.8577H293.297C292.948 25.3214 292.304 24.0877 290.293 24.0877C287.692 24.0877 285.895 26.1527 285.895 29.3173C285.895 32.5355 287.772 34.3591 290.266 34.3591C292.278 34.3591 292.921 33.1791 293.27 32.6159H293.404V34.7077C293.404 36.4241 292.197 37.2018 290.534 37.2018C288.664 37.2018 288.007 36.2163 287.584 35.6464L286.324 36.5314C286.968 37.6108 288.235 38.5964 290.534 38.5964ZM290.481 32.9377C288.496 32.9377 287.477 31.4359 287.477 29.2905C287.477 27.1987 288.469 25.5091 290.481 25.5091C292.412 25.5091 293.431 27.0646 293.431 29.2905C293.431 31.57 292.385 32.9377 290.481 32.9377ZM302.377 34.7346C304.469 34.7346 305.998 33.6887 306.48 32.1332L304.952 31.7041C304.55 32.7768 303.618 33.3132 302.377 33.3132C300.52 33.3132 299.24 32.1131 299.166 29.9073H306.641V29.2368C306.641 25.4018 304.362 24.0877 302.216 24.0877C299.427 24.0877 297.577 26.2868 297.577 29.4514C297.577 32.6159 299.4 34.7346 302.377 34.7346ZM299.166 28.5396C299.273 26.9372 300.406 25.5091 302.216 25.5091C303.933 25.5091 305.032 26.7964 305.032 28.5396H299.166ZM316.52 26.5282C316.024 25.0666 314.911 24.0877 312.873 24.0877C310.7 24.0877 309.091 25.3214 309.091 27.0646C309.091 28.4859 309.936 29.438 311.827 29.8805L313.543 30.2827C314.582 30.5241 315.072 31.0202 315.072 31.7309C315.072 32.6159 314.133 33.34 312.658 33.34C311.364 33.34 310.553 32.7835 310.271 31.6773L308.769 32.0527C309.138 33.8026 310.58 34.7346 312.685 34.7346C315.078 34.7346 316.708 33.4272 316.708 31.6505C316.708 30.2157 315.809 29.3106 313.972 28.8614L312.443 28.4859C311.223 28.1842 310.673 27.7752 310.673 26.9841C310.673 26.0991 311.612 25.4555 312.873 25.4555C314.254 25.4555 314.824 26.2198 315.098 26.9305L316.52 26.5282Z" fill="black" fill-opacity="0.87"/>
<line x1="69.0002" y1="196.084" x2="69.0002" y2="334.778" stroke="black" stroke-width="1.18"/>
<line x1="403.172" y1="196.329" x2="305.101" y2="98.2581" stroke="black" stroke-width="1.18"/>
<line x1="404.18" y1="196.084" x2="404.18" y2="334.778" stroke="black" stroke-width="1.18"/>
<line x1="166.064" y1="433.437" x2="67.9933" y2="335.366" stroke="black" stroke-width="1.18"/>
<line x1="305.347" y1="98.4313" x2="166.653" y2="98.4313" stroke="black" stroke-width="1.18"/>
<line x1="305.347" y1="433.61" x2="166.653" y2="433.61" stroke="black" stroke-width="1.18"/>
<line x1="166.899" y1="98.2585" x2="68.8277" y2="196.33" stroke="black" stroke-width="1.18"/>
<line x1="404.007" y1="335.366" x2="305.936" y2="433.438" stroke="black" stroke-width="1.18"/>
<line x1="92.2814" y1="205.717" x2="92.2814" y2="325.144" stroke="black" stroke-width="1.18"/>
<line x1="380.899" y1="205.717" x2="380.899" y2="325.144" stroke="black" stroke-width="1.18"/>
<line x1="379.891" y1="205.987" x2="295.444" y2="121.539" stroke="black" stroke-width="1.18"/>
<line x1="175.722" y1="410.156" x2="91.2743" y2="325.709" stroke="black" stroke-width="1.18"/>
<line x1="295.713" y1="121.712" x2="176.286" y2="121.712" stroke="black" stroke-width="1.18"/>
<line x1="295.713" y1="410.329" x2="176.286" y2="410.329" stroke="black" stroke-width="1.18"/>
<line x1="176.556" y1="121.539" x2="92.1087" y2="205.987" stroke="black" stroke-width="1.18"/>
<line x1="380.726" y1="325.709" x2="296.278" y2="410.156" stroke="black" stroke-width="1.18"/>
<line x1="358.13" y1="215.138" x2="358.13" y2="315.722" stroke="black" stroke-width="1.18"/>
<line x1="115.05" y1="215.138" x2="115.05" y2="315.722" stroke="black" stroke-width="1.18"/>
<line x1="357.123" y1="215.431" x2="285.999" y2="144.307" stroke="black" stroke-width="1.18"/>
<line x1="185.166" y1="387.388" x2="114.043" y2="316.264" stroke="black" stroke-width="1.18"/>
<line x1="286.292" y1="144.481" x2="185.708" y2="144.481" stroke="black" stroke-width="1.18"/>
<line x1="286.292" y1="387.561" x2="185.708" y2="387.561" stroke="black" stroke-width="1.18"/>
<line x1="186.001" y1="144.308" x2="114.877" y2="215.431" stroke="black" stroke-width="1.18"/>
<line x1="357.957" y1="316.264" x2="286.834" y2="387.388" stroke="black" stroke-width="1.18"/>
<line x1="138.225" y1="224.728" x2="138.225" y2="306.133" stroke="black" stroke-width="1.18"/>
<line x1="334.955" y1="224.728" x2="334.955" y2="306.133" stroke="black" stroke-width="1.18"/>
<line x1="333.948" y1="225.045" x2="276.386" y2="167.483" stroke="black" stroke-width="1.18"/>
<line x1="276.702" y1="167.655" x2="195.297" y2="167.655" stroke="black" stroke-width="1.18"/>
<line x1="194.779" y1="364.213" x2="137.217" y2="306.651" stroke="black" stroke-width="1.18"/>
<line x1="276.702" y1="364.386" x2="195.297" y2="364.386" stroke="black" stroke-width="1.18"/>
<line x1="195.614" y1="167.483" x2="138.052" y2="225.045" stroke="black" stroke-width="1.18"/>
<line x1="334.782" y1="306.651" x2="277.22" y2="364.213" stroke="black" stroke-width="1.18"/>
<line x1="160.587" y1="233.981" x2="160.587" y2="296.88" stroke="black" stroke-width="1.18"/>
<line x1="312.593" y1="233.981" x2="312.593" y2="296.88" stroke="black" stroke-width="1.18"/>
<line x1="311.586" y1="234.321" x2="267.11" y2="189.845" stroke="black" stroke-width="1.18"/>
<line x1="204.055" y1="341.851" x2="159.579" y2="297.375" stroke="black" stroke-width="1.18"/>
<line x1="267.449" y1="190.017" x2="204.551" y2="190.017" stroke="black" stroke-width="1.18"/>
<line x1="267.449" y1="342.024" x2="204.551" y2="342.024" stroke="black" stroke-width="1.18"/>
<line x1="204.89" y1="189.844" x2="160.414" y2="234.321" stroke="black" stroke-width="1.18"/>
<line x1="312.42" y1="297.375" x2="267.944" y2="341.851" stroke="black" stroke-width="1.18"/>
<line x1="181.729" y1="242.729" x2="181.729" y2="288.131" stroke="black" stroke-width="1.18"/>
<line x1="291.451" y1="242.729" x2="291.451" y2="288.131" stroke="black" stroke-width="1.18"/>
<line x1="290.444" y1="243.091" x2="258.34" y2="210.987" stroke="black" stroke-width="1.18"/>
<line x1="212.825" y1="320.709" x2="180.721" y2="288.605" stroke="black" stroke-width="1.18"/>
<line x1="258.701" y1="211.159" x2="213.299" y2="211.159" stroke="black" stroke-width="1.18"/>
<line x1="258.701" y1="320.882" x2="213.299" y2="320.882" stroke="black" stroke-width="1.18"/>
<line x1="213.66" y1="210.987" x2="181.556" y2="243.091" stroke="black" stroke-width="1.18"/>
<line x1="291.278" y1="288.605" x2="259.174" y2="320.709" stroke="black" stroke-width="1.18"/>
<line x1="200.838" y1="250.637" x2="200.838" y2="280.224" stroke="black" stroke-width="1.18"/>
<line x1="272.342" y1="250.637" x2="272.342" y2="280.224" stroke="black" stroke-width="1.18"/>
<line x1="271.335" y1="251.017" x2="250.413" y2="230.096" stroke="black" stroke-width="1.18"/>
<line x1="220.752" y1="301.6" x2="199.83" y2="280.678" stroke="black" stroke-width="1.18"/>
<line x1="250.793" y1="230.269" x2="221.206" y2="230.269" stroke="black" stroke-width="1.18"/>
<line x1="250.793" y1="301.773" x2="221.206" y2="301.773" stroke="black" stroke-width="1.18"/>
<line x1="221.586" y1="230.096" x2="200.665" y2="251.017" stroke="black" stroke-width="1.18"/>
<line x1="272.169" y1="280.678" x2="251.247" y2="301.6" stroke="black" stroke-width="1.18"/>
<line x1="217.914" y1="257.703" x2="217.914" y2="273.159" stroke="black" stroke-width="1.18"/>
<line x1="255.265" y1="257.703" x2="255.265" y2="273.159" stroke="black" stroke-width="1.18"/>
<line x1="254.258" y1="258.101" x2="243.329" y2="247.172" stroke="black" stroke-width="1.18"/>
<line x1="227.835" y1="284.523" x2="216.907" y2="273.594" stroke="black" stroke-width="1.18"/>
<line x1="243.727" y1="247.344" x2="228.272" y2="247.344" stroke="black" stroke-width="1.18"/>
<line x1="243.727" y1="284.696" x2="228.272" y2="284.696" stroke="black" stroke-width="1.18"/>
<line x1="228.67" y1="247.172" x2="217.741" y2="258.1" stroke="black" stroke-width="1.18"/>
<line x1="255.092" y1="273.594" x2="244.164" y2="284.523" stroke="black" stroke-width="1.18"/>
<line x1="167.431" y1="98.5342" x2="228.817" y2="246.529" stroke="black" stroke-width="1.18"/>
<line x1="306.129" y1="97.9141" x2="244.273" y2="246.981" stroke="black" stroke-width="1.18"/>
<line x1="403.816" y1="196.457" x2="254.901" y2="258.229" stroke="black" stroke-width="1.18"/>
<line x1="254.902" y1="272.613" x2="403.816" y2="334.47" stroke="black" stroke-width="1.18"/>
<line x1="244.291" y1="283.88" x2="306.129" y2="432.794" stroke="black" stroke-width="1.18"/>
<line x1="228.798" y1="284.331" x2="167.432" y2="433.245" stroke="black" stroke-width="1.18"/>
<line x1="217.55" y1="273.722" x2="68.6365" y2="335.559" stroke="black" stroke-width="1.18"/>
<line x1="217.098" y1="258.229" x2="68.1847" y2="196.629" stroke="black" stroke-width="1.18"/>
<path opacity="0.5" d="M285.44 144.472L187.072 144.472L137.888 224.246L160.081 298.022L187.072 386.793L278.242 363.401L290.838 287.825L335.823 224.246L285.44 144.472Z" fill="#DFAB26" stroke="#DFAB26" stroke-width="1.18"/>
<path d="M290.238 242.24L296.836 121.68L211.664 205.652L104.299 211.051L200.867 281.228L205.066 341.808L287.239 385.594L334.624 307.019L290.238 242.24Z" fill="#3F9FE4" fill-opacity="0.75" stroke="#2C98F0" stroke-width="1.18"/>
<path d="M311.623 86.3713H312.629C312.583 85.0764 311.388 84.1085 309.729 84.1085C308.086 84.1085 306.796 85.0639 306.796 86.5053C306.796 87.6619 307.634 88.3491 308.975 88.7346L310.031 89.0363C310.936 89.2877 311.74 89.6062 311.74 90.461C311.74 91.3997 310.835 92.0198 309.645 92.0198C308.623 92.0198 307.718 91.5673 307.634 90.5951H306.561C306.662 92.0031 307.801 92.9585 309.645 92.9585C311.623 92.9585 312.746 91.869 312.746 90.4778C312.746 88.8687 311.221 88.3491 310.332 88.1144L309.461 87.8798C308.824 87.7122 307.801 87.3769 307.801 86.4551C307.801 85.6338 308.556 85.0303 309.695 85.0303C310.735 85.0303 311.522 85.5248 311.623 86.3713ZM314.455 92.8076H319.701V91.8857H315.494V88.9693H319.366V88.0474H315.494V85.1477H319.634V84.2258H314.455V92.8076ZM321.507 92.8076H322.546V89.4553H324.423C324.499 89.4553 324.57 89.4553 324.641 89.4512L326.452 92.8076H327.658L325.718 89.2626C326.812 88.8896 327.323 87.9971 327.323 86.8573C327.323 85.3404 326.418 84.2258 324.407 84.2258H321.507V92.8076ZM322.546 88.5167V85.1477H324.373C325.764 85.1477 326.301 85.8265 326.301 86.8573C326.301 87.8882 325.764 88.5167 324.39 88.5167H322.546ZM329.211 84.2258H328.121L331.273 92.8076H332.345L335.496 84.2258H334.407L331.859 91.4499H331.759L329.211 84.2258ZM337.872 84.2258H336.833V92.8076H337.872V84.2258ZM346.862 86.9076C346.543 85.1477 345.135 84.1085 343.409 84.1085C341.213 84.1085 339.621 85.8014 339.621 88.5167C339.621 91.232 341.213 92.9249 343.409 92.9249C345.135 92.9249 346.543 91.8857 346.862 90.1258H345.822C345.571 91.3159 344.549 91.9528 343.409 91.9528C341.85 91.9528 340.626 90.746 340.626 88.5167C340.626 86.2874 341.85 85.0806 343.409 85.0806C344.549 85.0806 345.571 85.7176 345.822 86.9076H346.862ZM348.541 92.8076H353.787V91.8857H349.58V88.9693H353.452V88.0474H349.58V85.1477H353.72V84.2258H348.541V92.8076Z" fill="black"/>
<path d="M416.384 193.97H417.389C417.343 192.675 416.149 191.707 414.49 191.707C412.847 191.707 411.556 192.662 411.556 194.104C411.556 195.261 412.395 195.948 413.735 196.333L414.791 196.635C415.697 196.886 416.501 197.205 416.501 198.06C416.501 198.998 415.596 199.618 414.406 199.618C413.383 199.618 412.478 199.166 412.395 198.194H411.322C411.422 199.602 412.562 200.557 414.406 200.557C416.384 200.557 417.507 199.468 417.507 198.076C417.507 196.467 415.981 195.948 415.093 195.713L414.222 195.478C413.585 195.311 412.562 194.976 412.562 194.054C412.562 193.232 413.316 192.629 414.456 192.629C415.495 192.629 416.283 193.123 416.384 193.97ZM418.746 192.746H421.445V200.406H422.484V192.746H425.182V191.824H418.746V192.746ZM426.136 200.406L426.999 197.976H430.469L431.332 200.406H432.421L429.27 191.824H428.197L425.046 200.406H426.136ZM427.326 197.054L428.7 193.182H428.767L430.142 197.054H427.326ZM433.758 200.406H434.797V196.568H438.518V195.646H434.797V192.746H438.904V191.824H433.758V200.406ZM440.684 200.406H441.723V196.568H445.444V195.646H441.723V192.746H445.829V191.824H440.684V200.406Z" fill="black"/>
<path d="M411.691 332.691V341.273H412.663V334.753H412.747L415.428 341.273H416.367L419.049 334.753H419.133V341.273H420.105V332.691H418.864L415.948 339.815H415.847L412.931 332.691H411.691ZM427.82 332.691V338.373C427.82 339.714 426.748 340.452 425.524 340.452C424.3 340.452 423.228 339.714 423.228 338.373V332.691H422.188V338.373C422.188 340.301 423.714 341.424 425.524 341.424C427.334 341.424 428.859 340.301 428.859 338.373V332.691H427.82ZM435.628 334.837H436.634C436.587 333.542 435.393 332.574 433.734 332.574C432.091 332.574 430.801 333.529 430.801 334.971C430.801 336.127 431.639 336.814 432.98 337.2L434.036 337.502C434.941 337.753 435.745 338.072 435.745 338.926C435.745 339.865 434.84 340.485 433.65 340.485C432.628 340.485 431.722 340.033 431.639 339.06H430.566C430.667 340.468 431.806 341.424 433.65 341.424C435.628 341.424 436.751 340.334 436.751 338.943C436.751 337.334 435.226 336.814 434.337 336.58L433.466 336.345C432.829 336.177 431.806 335.842 431.806 334.92C431.806 334.099 432.561 333.496 433.7 333.496C434.74 333.496 435.527 333.99 435.628 334.837ZM439.499 332.691H438.46V341.273H439.499V332.691ZM448.488 335.373C448.17 333.613 446.762 332.574 445.035 332.574C442.839 332.574 441.247 334.267 441.247 336.982C441.247 339.697 442.839 341.39 445.035 341.39C446.762 341.39 448.17 340.351 448.488 338.591H447.449C447.197 339.781 446.175 340.418 445.035 340.418C443.476 340.418 442.253 339.211 442.253 336.982C442.253 334.753 443.476 333.546 445.035 333.546C446.175 333.546 447.197 334.183 447.449 335.373H448.488Z" fill="black"/>
<path d="M306.386 455.323H307.425V451.484H311.146V450.563H307.425V447.663H311.532V446.741H306.386V455.323ZM320.553 451.032C320.553 448.317 318.96 446.624 316.765 446.624C314.569 446.624 312.976 448.317 312.976 451.032C312.976 453.747 314.569 455.44 316.765 455.44C318.96 455.44 320.553 453.747 320.553 451.032ZM319.547 451.032C319.547 453.261 318.323 454.468 316.765 454.468C315.206 454.468 313.982 453.261 313.982 451.032C313.982 448.803 315.206 447.596 316.765 447.596C318.323 447.596 319.547 448.803 319.547 451.032ZM329.541 451.032C329.541 448.317 327.949 446.624 325.753 446.624C323.557 446.624 321.965 448.317 321.965 451.032C321.965 453.747 323.557 455.44 325.753 455.44C327.949 455.44 329.541 453.747 329.541 451.032ZM328.535 451.032C328.535 453.261 327.312 454.468 325.753 454.468C324.194 454.468 322.97 453.261 322.97 451.032C322.97 448.803 324.194 447.596 325.753 447.596C327.312 447.596 328.535 448.803 328.535 451.032ZM333.937 455.323C336.551 455.323 338.026 453.697 338.026 451.015C338.026 448.35 336.551 446.741 334.054 446.741H331.288V455.323H333.937ZM332.327 454.401V447.663H333.987C335.998 447.663 337.021 448.937 337.021 451.015C337.021 453.11 335.998 454.401 333.87 454.401H332.327Z" fill="black"/>
<path d="M127.652 455.323H128.692V452.188H130.569C132.568 452.188 133.469 450.973 133.469 449.456C133.469 447.939 132.568 446.741 130.552 446.741H127.652V455.323ZM128.692 451.267V447.663H130.519C131.914 447.663 132.446 448.425 132.446 449.456C132.446 450.487 131.914 451.267 130.535 451.267H128.692ZM135.143 455.323H136.182V451.97H138.059C138.135 451.97 138.206 451.97 138.277 451.966L140.087 455.323H141.294L139.354 451.778C140.448 451.405 140.959 450.512 140.959 449.372C140.959 447.856 140.054 446.741 138.042 446.741H135.143V455.323ZM136.182 451.032V447.663H138.009C139.4 447.663 139.936 448.342 139.936 449.372C139.936 450.403 139.4 451.032 138.026 451.032H136.182ZM143.73 446.741H142.691V455.323H143.73V446.741ZM152.719 449.423C152.401 447.663 150.993 446.624 149.266 446.624C147.071 446.624 145.478 448.317 145.478 451.032C145.478 453.747 147.071 455.44 149.266 455.44C150.993 455.44 152.401 454.401 152.719 452.641H151.68C151.428 453.831 150.406 454.468 149.266 454.468C147.707 454.468 146.484 453.261 146.484 451.032C146.484 448.803 147.707 447.596 149.266 447.596C150.406 447.596 151.428 448.233 151.68 449.423H152.719ZM154.398 455.323H159.645V454.401H155.438V451.484H159.309V450.563H155.438V447.663H159.578V446.741H154.398V455.323Z" fill="black"/>
<path d="M27.16 336.982C27.16 334.267 25.5677 332.574 23.3719 332.574C21.1762 332.574 19.5839 334.267 19.5839 336.982C19.5839 339.697 21.1762 341.39 23.3719 341.39C25.5677 341.39 27.16 339.697 27.16 336.982ZM26.1543 336.982C26.1543 339.211 24.9307 340.418 23.3719 340.418C21.8131 340.418 20.5895 339.211 20.5895 336.982C20.5895 334.753 21.8131 333.546 23.3719 333.546C24.9307 333.546 26.1543 334.753 26.1543 336.982ZM30.4662 341.273H31.5389L33.4329 334.434H33.5L35.394 341.273H36.4667L38.8133 332.691H37.7574L35.9639 339.681H35.8801L34.0531 332.691H32.8798L31.0528 339.681H30.969L29.1756 332.691H28.1196L30.4662 341.273ZM46.9133 332.691H45.8908V339.446H45.807L41.1138 332.691H40.1082V341.273H41.1474V334.535H41.2312L45.9076 341.273H46.9133V332.691ZM48.9927 341.273H54.239V340.351H50.0319V337.435H53.9038V336.513H50.0319V333.613H54.172V332.691H48.9927V341.273ZM56.0451 341.273H57.0843V337.921H58.9615C59.037 337.921 59.1082 337.921 59.1794 337.916L60.9897 341.273H62.1965L60.2564 337.728C61.35 337.355 61.8613 336.462 61.8613 335.323C61.8613 333.806 60.9561 332.691 58.9448 332.691H56.0451V341.273ZM57.0843 336.982V333.613H58.9113C60.3025 333.613 60.8388 334.292 60.8388 335.323C60.8388 336.353 60.3025 336.982 58.928 336.982H57.0843Z" fill="black"/>
<path d="M19.4498 192.746H22.1483V200.406H23.1876V192.746H25.8861V191.824H19.4498V192.746ZM26.8394 200.406L27.7026 197.976H31.1722L32.0355 200.406H33.1249L29.9738 191.824H28.9011L25.7499 200.406H26.8394ZM28.0295 197.054L29.4039 193.182H29.471L30.8454 197.054H28.0295ZM34.4617 200.406H37.5625C39.5906 200.406 40.4287 199.417 40.4287 198.127C40.4287 196.769 39.4901 196.032 38.7023 195.981V195.897C39.4398 195.696 40.0935 195.21 40.0935 194.104C40.0935 192.847 39.2554 191.824 37.462 191.824H34.4617V200.406ZM35.5009 199.484V196.501H37.6128C38.7358 196.501 39.4398 197.255 39.4398 198.127C39.4398 198.881 38.9202 199.484 37.5625 199.484H35.5009ZM35.5009 195.596V192.746H37.462C38.6017 192.746 39.1046 193.35 39.1046 194.104C39.1046 195.009 38.3671 195.596 37.4284 195.596H35.5009ZM42.1363 200.406H47.1647V199.484H43.1755V191.824H42.1363V200.406ZM48.7738 200.406H54.0201V199.484H49.813V196.568H53.6849V195.646H49.813V192.746H53.953V191.824H48.7738V200.406ZM60.5193 193.97H61.525C61.4789 192.675 60.2846 191.707 58.6253 191.707C56.9827 191.707 55.692 192.662 55.692 194.104C55.692 195.261 56.5301 195.948 57.871 196.333L58.927 196.635C59.8321 196.886 60.6366 197.205 60.6366 198.06C60.6366 198.998 59.7315 199.618 58.5415 199.618C57.519 199.618 56.6139 199.166 56.5301 198.194H55.4574C55.5579 199.602 56.6977 200.557 58.5415 200.557C60.5193 200.557 61.6423 199.468 61.6423 198.076C61.6423 196.467 60.117 195.948 59.2287 195.713L58.3571 195.478C57.7202 195.311 56.6977 194.976 56.6977 194.054C56.6977 193.232 57.452 192.629 58.5917 192.629C59.631 192.629 60.4187 193.123 60.5193 193.97Z" fill="black"/>
<path d="M128.982 86.9076C128.664 85.1477 127.256 84.1085 125.529 84.1085C123.334 84.1085 121.741 85.8014 121.741 88.5167C121.741 91.232 123.334 92.9249 125.529 92.9249C127.256 92.9249 128.664 91.8857 128.982 90.1258H127.943C127.692 91.3159 126.669 91.9528 125.529 91.9528C123.971 91.9528 122.747 90.746 122.747 88.5167C122.747 86.2874 123.971 85.0806 125.529 85.0806C126.669 85.0806 127.692 85.7176 127.943 86.9076H128.982ZM130.662 92.8076H135.69V91.8857H131.701V84.2258H130.662V92.8076ZM137.299 92.8076H142.545V91.8857H138.338V88.9693H142.21V88.0474H138.338V85.1477H142.478V84.2258H137.299V92.8076ZM144.703 92.8076L145.567 90.3772H149.036L149.899 92.8076H150.989L147.838 84.2258H146.765L143.614 92.8076H144.703ZM145.893 89.4553L147.268 85.5835H147.335L148.709 89.4553H145.893ZM159.131 84.2258H158.108V90.9806H158.024L153.331 84.2258H152.326V92.8076H153.365V86.0695H153.449L158.125 92.8076H159.131V84.2258ZM161.21 92.8076H166.239V91.8857H162.249V84.2258H161.21V92.8076ZM168.887 84.2258H167.848V92.8076H168.887V84.2258ZM177.776 84.2258H176.753V90.9806H176.669L171.976 84.2258H170.971V92.8076H172.01V86.0695H172.094L176.77 92.8076H177.776V84.2258ZM179.855 92.8076H185.101V91.8857H180.894V88.9693H184.766V88.0474H180.894V85.1477L185.034 85.1477V84.2258L179.855 84.2258V92.8076ZM191.601 86.3713H192.606C192.56 85.0764 191.366 84.1085 189.707 84.1085C188.064 84.1085 186.773 85.0639 186.773 86.5053C186.773 87.6619 187.611 88.3491 188.952 88.7346L190.008 89.0363C190.913 89.2877 191.718 89.6062 191.718 90.461C191.718 91.3997 190.813 92.0198 189.623 92.0198C188.6 92.0198 187.695 91.5673 187.611 90.5951H186.539C186.639 92.0031 187.779 92.9585 189.623 92.9585C191.601 92.9585 192.724 91.869 192.724 90.4778C192.724 88.8687 191.198 88.3491 190.31 88.1144L189.438 87.8798C188.801 87.7122 187.779 87.3769 187.779 86.4551C187.779 85.6338 188.533 85.0303 189.673 85.0303C190.712 85.0303 191.5 85.5248 191.601 86.3713ZM199.125 86.3713H200.131C200.085 85.0764 198.891 84.1085 197.231 84.1085C195.589 84.1085 194.298 85.0639 194.298 86.5053C194.298 87.6619 195.136 88.3491 196.477 88.7346L197.533 89.0363C198.438 89.2877 199.243 89.6062 199.243 90.461C199.243 91.3997 198.338 92.0198 197.148 92.0198C196.125 92.0198 195.22 91.5673 195.136 90.5951H194.063C194.164 92.0031 195.304 92.9585 197.148 92.9585C199.125 92.9585 200.248 91.869 200.248 90.4778C200.248 88.8687 198.723 88.3491 197.835 88.1144L196.963 87.8798C196.326 87.7122 195.304 87.3769 195.304 86.4551C195.304 85.6338 196.058 85.0303 197.198 85.0303C198.237 85.0303 199.025 85.5248 199.125 86.3713Z" fill="black"/>
</svg>
